<svg width="20" height="20" viewBox="0 0 20 20" fill="none" xmlns="http://www.w3.org/2000/svg">
  <path d="M15.5 10.5C15.4844 8.82813 16.7344 7.98438 16.8125 7.9375C16.0313 6.82813 14.8125 6.6875 14.375 6.67188C13.2656 6.54688 12.1875 7.34375 11.625 7.34375C11.0469 7.34375 10.1719 6.6875 9.25 6.70313C8.0625 6.71875 6.95313 7.4375 6.34375 8.54688C5.09375 10.7969 6.01563 14.1406 7.21875 16C7.8125 16.875 8.51563 17.8594 9.4375 17.8281C10.3281 17.7969 10.6719 17.2344 11.75 17.2344C12.8125 17.2344 13.125 17.8281 14.0625 17.8125C15.0156 17.7969 15.625 16.9219 16.2031 16.0313C16.875 15.0156 17.1563 14.0156 17.1719 13.9688C17.1406 13.9531 15.5156 13.3125 15.5 10.5ZM13.5469 5.46875C14.0313 4.875 14.3594 4.04688 14.2656 3.20313C13.5469 3.23438 12.6563 3.70313 12.1563 4.28125C11.7188 4.78125 11.3125 5.64063 11.4219 6.45313C12.2344 6.51563 13.0625 6.04688 13.5469 5.46875Z" fill="currentColor"/>
</svg>
