<svg width="60" height="60" viewBox="0 0 60 60" fill="none" xmlns="http://www.w3.org/2000/svg">
<circle cx="30" cy="30" r="30" fill="#EAEAEA"/>
<path d="M30.5 22.9C31.8128 22.9 33.0718 22.3785 34.0001 21.4502C34.9284 20.5219 35.45 19.2628 35.45 17.95C35.45 16.6372 34.9284 15.3781 34.0001 14.4498C33.0718 13.5215 31.8128 13 30.5 13C29.1871 13 27.9281 13.5215 26.9998 14.4498C26.0715 15.3781 25.55 16.6372 25.55 17.95C25.55 19.2628 26.0715 20.5219 26.9998 21.4502C27.9281 22.3785 29.1871 22.9 30.5 22.9ZM30.5 22.9V24.55M30.5 24.55C30.5 26.0878 30.5 26.8567 30.7937 27.4623C31.1831 28.2708 31.9322 28.9142 32.876 29.2492C33.5855 29.5 34.4814 29.5 36.275 29.5C38.0685 29.5 38.9644 29.5 39.6739 29.7508C40.6161 30.0858 41.3669 30.7292 41.7563 31.5377C42.05 32.1433 42.05 32.9122 42.05 34.45V36.1M30.5 24.55C30.5 26.0878 30.5 26.8567 30.2063 27.4623C29.8169 28.2708 29.0678 28.9142 28.124 29.2492C27.4145 29.5 26.5185 29.5 24.725 29.5C22.9314 29.5 22.0355 29.5 21.326 29.7508C20.3838 30.0858 19.6331 30.7292 19.2437 31.5377C18.95 32.1433 18.95 32.9122 18.95 34.45V36.1" stroke="black" stroke-width="1.5" stroke-linecap="round" stroke-linejoin="round"/>
<path d="M23.9 41.0496C23.9 42.3624 23.3785 43.6215 22.4502 44.5498C21.5219 45.4781 20.2628 45.9996 18.95 45.9996C17.6372 45.9996 16.3781 45.4781 15.4498 44.5498C14.5215 43.6215 14 42.3624 14 41.0496C14 39.7368 14.5215 38.4777 15.4498 37.5494C16.3781 36.6211 17.6372 36.0996 18.95 36.0996C20.2628 36.0996 21.5219 36.6211 22.4502 37.5494C23.3785 38.4777 23.9 39.7368 23.9 41.0496ZM47 41.0496C47 42.3624 46.4785 43.6215 45.5502 44.5498C44.6219 45.4781 43.3628 45.9996 42.05 45.9996C40.7372 45.9996 39.4781 45.4781 38.5498 44.5498C37.6215 43.6215 37.1 42.3624 37.1 41.0496C37.1 39.7368 37.6215 38.4777 38.5498 37.5494C39.4781 36.6211 40.7372 36.0996 42.05 36.0996C43.3628 36.0996 44.6219 36.6211 45.5502 37.5494C46.4785 38.4777 47 39.7368 47 41.0496Z" stroke="black" stroke-width="1.5" stroke-linecap="round" stroke-linejoin="round"/>
</svg>