<svg width="19" height="20" viewBox="0 0 19 20" xmlns="http://www.w3.org/2000/svg">
<path fill-rule="evenodd" clip-rule="evenodd" d="M2.18448 13.5552C3.08668 12.6538 4.31014 12.1475 5.58553 12.1475H13.2802C14.5556 12.1475 15.779 12.6538 16.6812 13.5552C17.5824 14.4565 18.0893 15.679 18.0893 16.9537V18.8761C18.0893 19.407 17.6584 19.8374 17.1275 19.8374C16.5966 19.8374 16.1657 19.407 16.1657 18.8761V16.9537C16.1657 16.1889 15.8617 15.4554 15.3202 14.9146C14.7797 14.3738 14.0458 14.0699 13.2802 14.0699H5.58553C4.81991 14.0699 4.08603 14.3738 3.54548 14.9146C3.00397 15.4554 2.70003 16.1889 2.70003 16.9537V18.8761C2.70003 19.407 2.26913 19.8374 1.7382 19.8374C1.20727 19.8374 0.776367 19.407 0.776367 18.8761V16.9537C0.776367 15.679 1.28324 14.4565 2.18448 13.5552Z"/>
<path fill-rule="evenodd" clip-rule="evenodd" d="M9.43294 2.53479C7.83918 2.53479 6.54744 3.82583 6.54744 5.41851C6.54744 7.01119 7.83918 8.30223 9.43294 8.30223C11.0267 8.30223 12.3184 7.01119 12.3184 5.41851C12.3184 3.82583 11.0267 2.53479 9.43294 2.53479ZM4.62378 5.41851C4.62378 2.76414 6.77732 0.612305 9.43294 0.612305C12.0886 0.612305 14.2421 2.76414 14.2421 5.41851C14.2421 8.07288 12.0886 10.2247 9.43294 10.2247C6.77732 10.2247 4.62378 8.07288 4.62378 5.41851Z"/>
</svg>