<svg width="46" height="29" viewBox="0 0 46 29" fill="none" xmlns="http://www.w3.org/2000/svg">
<defs>
<clipPath id="clip0_189_935">
<rect width="45" height="28" fill="white" transform="translate(0.966309 0.744141)"/>
</clipPath>

<!-- 3D Gradient for T character - iOS compatible -->
<linearGradient id="tGradient" x1="0%" y1="0%" x2="100%" y2="100%">
<stop offset="0%" style="stop-color:#ffffff;stop-opacity:1" />
<stop offset="25%" style="stop-color:#f5f5f5;stop-opacity:1" />
<stop offset="50%" style="stop-color:#e0e0e0;stop-opacity:1" />
<stop offset="75%" style="stop-color:#c8c8c8;stop-opacity:1" />
<stop offset="100%" style="stop-color:#a8a8a8;stop-opacity:1" />
</linearGradient>

<!-- 3D Gradient for D character - iOS compatible -->
<linearGradient id="dGradient" x1="0%" y1="0%" x2="100%" y2="100%">
<stop offset="0%" style="stop-color:#ffffff;stop-opacity:1" />
<stop offset="20%" style="stop-color:#f8f8f8;stop-opacity:1" />
<stop offset="45%" style="stop-color:#e5e5e5;stop-opacity:1" />
<stop offset="70%" style="stop-color:#d0d0d0;stop-opacity:1" />
<stop offset="100%" style="stop-color:#b0b0b0;stop-opacity:1" />
</linearGradient>

<!-- Top highlight gradient -->
<linearGradient id="topHighlight" x1="0%" y1="0%" x2="0%" y2="40%">
<stop offset="0%" style="stop-color:#ffffff;stop-opacity:0.7" />
<stop offset="100%" style="stop-color:#ffffff;stop-opacity:0" />
</linearGradient>

<!-- Side highlight gradient -->
<linearGradient id="sideHighlight" x1="0%" y1="0%" x2="30%" y2="0%">
<stop offset="0%" style="stop-color:#ffffff;stop-opacity:0.5" />
<stop offset="100%" style="stop-color:#ffffff;stop-opacity:0" />
</linearGradient>

<!-- Simple shadow gradient - iOS safe -->
<radialGradient id="simpleShadow" cx="50%" cy="50%" r="60%">
<stop offset="0%" style="stop-color:#000000;stop-opacity:0" />
<stop offset="70%" style="stop-color:#000000;stop-opacity:0.1" />
<stop offset="100%" style="stop-color:#000000;stop-opacity:0.25" />
</radialGradient>
</defs>

<g clip-path="url(#clip0_189_935)" transform="scale(1.1) translate(-2.3, -1.45)">

<!-- Simple shadow for T - iOS compatible -->
<path opacity="0.2" fill-rule="evenodd" clip-rule="evenodd" d="M9.54879 1.215332C16.2478 1.215332 22.9469 1.215332 29.6459 1.215332C29.6459 3.04351 29.6459 4.87169 29.6459 6.69987C26.2129 6.72436 22.7802 6.76285 19.3477 6.81533C19.235 12.993 19.0997 19.1703 18.942 25.3473C17.0696 23.5768 15.1972 21.8064 13.3248 20.036C13.2936 15.5906 13.2832 11.1453 13.2936 6.69987C12.9393 6.69028 12.5856 6.6999 12.2326 6.72873C11.0155 7.73904 9.79844 8.74935 8.58138 9.75966C8.50231 11.5696 8.41911 13.3785 8.33173 15.1865C6.04105 13.0964 3.74216 11.018 1.43506 8.95141C1.43506 8.91291 1.43506 8.87446 1.43506 8.83595C4.16052 6.31492 6.8651 3.77471 9.54879 1.215332Z" 
fill="#000000"/>

<!-- Main T character with 3D gradient -->
<path opacity="0.941" fill-rule="evenodd" clip-rule="evenodd" d="M9.04879 0.715332C15.7478 0.715332 22.4469 0.715332 29.1459 0.715332C29.1459 2.54351 29.1459 4.37169 29.1459 6.19987C25.7129 6.22436 22.2802 6.26285 18.8477 6.31533C18.735 12.493 18.5997 18.6703 18.442 24.8473C16.5696 23.0768 14.6972 21.3064 12.8248 19.536C12.7936 15.0906 12.7832 10.6453 12.7936 6.19987C12.4393 6.19028 12.0856 6.1999 11.7326 6.22873C10.5155 7.23904 9.29844 8.24935 8.08138 9.25966C8.00231 11.0696 7.91911 12.8785 7.83173 14.6865C5.54105 12.5964 3.24216 10.518 0.935059 8.45141C0.935059 8.41291 0.935059 8.37446 0.935059 8.33595C3.66052 5.81492 6.3651 3.27471 9.04879 0.715332Z" 
fill="url(#tGradient)"/>

<!-- Top highlight for T -->
<path opacity="0.6" fill-rule="evenodd" clip-rule="evenodd" d="M9.04879 0.715332C15.7478 0.715332 22.4469 0.715332 29.1459 0.715332C29.1459 1.8 29.1459 2.9 29.1459 4C25.7129 4.02 22.2802 4.05 18.8477 4.1C18.8 4.5 18.75 4.9 18.7 5.3C20.5 5.1 22.3 4.9 24.1 4.8C25.8 4.7 27.5 4.65 29.1459 4.65C29.1459 5.2 29.1459 5.7 29.1459 6.19987C25.7129 6.22436 22.2802 6.26285 18.8477 6.31533C18.8 6.7 18.75 7.1 18.7 7.5C16.9 7.3 15.1 7.1 13.3 6.9C12.9 6.85 12.5 6.8 12.1 6.75C11.8 6.7 11.5 6.65 11.2 6.6C10.8 6.5 10.4 6.4 10 6.3C9.6 6.2 9.2 6.1 8.8 6C8.4 5.9 8 5.8 7.6 5.7C7.2 5.6 6.8 5.5 6.4 5.4C6 5.3 5.6 5.2 5.2 5.1C4.8 5 4.4 4.9 4 4.8C3.6 4.7 3.2 4.6 2.8 4.5C2.4 4.4 2 4.3 1.6 4.2C1.2 4.1 0.935059 4 0.935059 3.9C3.66052 3.3 6.3651 2.5 9.04879 0.715332Z" 
fill="url(#topHighlight)"/>

<!-- Side highlight for T -->
<path opacity="0.4" fill-rule="evenodd" clip-rule="evenodd" d="M9.04879 0.715332C11 0.715332 13 0.8 15 0.9C15.2 1.5 15.3 2.1 15.4 2.7C15.5 3.3 15.6 3.9 15.7 4.5C15.8 5.1 15.9 5.7 16 6.3C16.1 6.9 16.2 7.5 16.3 8.1C16.4 8.7 16.5 9.3 16.6 9.9C16.7 10.5 16.8 11.1 16.9 11.7C17 12.3 17.1 12.9 17.2 13.5C17.3 14.1 17.4 14.7 17.5 15.3C17.6 15.9 17.7 16.5 17.8 17.1C17.9 17.7 18 18.3 18.1 18.9C18.2 19.5 18.3 20.1 18.4 20.7C16.6 19 14.8 17.3 13 15.6C12.9 11.5 12.8 7.4 12.9 3.3C11.6 2.4 10.3 1.5 9.04879 0.715332Z" 
fill="url(#sideHighlight)"/>

<!-- Simple shadow for D - iOS compatible -->
<path opacity="0.2" fill-rule="evenodd" clip-rule="evenodd" d="M46.435 8.77795C46.435 8.81646 46.435 8.85491 46.435 8.89341C39.0062 15.6689 31.579 22.4428 24.1535 29.2151C24.1327 29.2151 24.1118 29.2151 24.0911 29.2151C24.0911 23.2302 24.0911 17.2453 24.0911 11.2604C25.8602 11.2745 27.6286 11.2553 29.3962 11.2027C29.3858 13.3773 29.3962 15.5519 29.4274 17.7264C32.4941 14.7549 35.5836 11.801 38.6958 8.86455C37.841 8.05463 36.9672 7.2656 36.0744 6.49754C35.5339 6.46868 34.993 6.45906 34.4517 6.46867C34.4517 4.79444 34.4517 3.12022 34.4517 1.44599C35.9082 1.43637 37.3644 1.445992 38.8206 1.474856C41.3277 3.93824 43.8658 6.37261 46.435 8.77795Z" 
fill="#000000"/>

<!-- Main D character with 3D gradient -->
<path opacity="0.99" fill-rule="evenodd" clip-rule="evenodd" d="M45.935 8.27795C45.935 8.31646 45.935 8.35491 45.935 8.39341C38.5062 15.1689 31.079 21.9428 23.6535 28.7151C23.6327 28.7151 23.6118 28.7151 23.5911 28.7151C23.5911 22.7302 23.5911 16.7453 23.5911 10.7604C25.3602 10.7745 27.1286 10.7553 28.8962 10.7027C28.8858 12.8773 28.8962 15.0519 28.9274 17.2264C31.9941 14.2549 35.0836 11.301 38.1958 8.36455C37.341 7.55463 36.4672 6.7656 35.5744 5.99754C35.0339 5.96868 34.493 5.95906 33.9517 5.96867C33.9517 4.29444 33.9517 2.62022 33.9517 0.94599C35.4082 0.93637 36.8644 0.945992 38.3206 0.974856C40.8277 3.43824 43.3658 5.87261 45.935 8.27795Z" 
fill="url(#dGradient)"/>

<!-- Top highlight for D -->
<path opacity="0.6" fill-rule="evenodd" clip-rule="evenodd" d="M45.935 8.27795C45.935 8.5 45.9 8.7 45.8 8.9C43 11.5 40.2 14.1 37.4 16.7C36.8 16.6 36.2 16.5 35.6 16.4C35 16.3 34.4 16.2 33.8 16.1C33.2 16 32.6 15.9 32 15.8C31.4 15.7 30.8 15.6 30.2 15.5C29.6 15.4 29 15.3 28.4 15.2C27.8 15.1 27.2 15 26.6 14.9C26 14.8 25.4 14.7 24.8 14.6C24.2 14.5 23.6 14.4 23.5911 14.3C23.5911 12.8 23.6 11.3 23.7 9.8C25.5 9.8 27.3 9.8 29.1 9.8C30.9 9.8 32.7 9.8 34.5 9.8C36.3 9.8 38.1 9.8 39.9 9.8C41.7 9.8 43.5 9.8 45.3 9.8C45.5 9.3 45.7 8.8 45.935 8.27795Z" 
fill="url(#topHighlight)"/>

<!-- Side highlight for D -->
<path opacity="0.4" fill-rule="evenodd" clip-rule="evenodd" d="M45.935 8.27795C45.8 8.5 45.7 8.7 45.6 8.9C44.8 9.6 44 10.3 43.2 11C42.4 11.7 41.6 12.4 40.8 13.1C40 13.8 39.2 14.5 38.4 15.2C37.6 15.9 36.8 16.6 36 17.3C35.2 18 34.4 18.7 33.6 19.4C32.8 20.1 32 20.8 31.2 21.5C30.4 22.2 29.6 22.9 28.8 23.6C28 24.3 27.2 25 26.4 25.7C25.6 26.4 24.8 27.1 24 27.8C23.8 27.6 23.7 27.4 23.6 27.2C23.6 26.5 23.6 25.8 23.6 25.1C23.6 24.4 23.6 23.7 23.6 23C23.6 22.3 23.6 21.6 23.6 20.9C23.6 20.2 23.6 19.5 23.6 18.8C23.6 18.1 23.6 17.4 23.6 16.7C23.6 16 23.6 15.3 23.6 14.6C23.6 13.9 23.6 13.2 23.6 12.5C23.6 11.8 23.6 11.1 23.6 10.4C25.4 10.4 27.2 10.4 29 10.4C30.8 10.4 32.6 10.4 34.4 10.4C36.2 10.4 38 10.4 39.8 10.4C41.6 10.4 43.4 10.4 45.2 10.4C45.4 9.7 45.7 9 45.935 8.27795Z" 
fill="url(#sideHighlight)"/>

<!-- Enhanced detail elements with metallic effect - simplified for iOS -->
<path fill-rule="evenodd" clip-rule="evenodd" d="M28.5843 1.23486C28.6466 2.72596 28.6674 4.227 28.6467 5.73796C27.5857 5.73796 26.5246 5.73796 25.4636 5.73796C26.4929 5.68043 27.5331 5.66118 28.5843 5.68022C28.5843 4.19844 28.5843 2.71665 28.5843 1.23486Z" 
fill="#D4AF75"/>

<path fill-rule="evenodd" clip-rule="evenodd" d="M7.4261 12.0308C7.44675 12.5326 7.42597 13.0329 7.36368 13.5318C7.3258 13.5246 7.30501 13.5054 7.30127 13.4741C7.3429 12.993 7.38447 12.5118 7.4261 12.0308Z" 
fill="#E4BF85"/>

<path fill-rule="evenodd" clip-rule="evenodd" d="M17.9739 22.6533C17.9945 22.9827 17.9736 23.3098 17.9115 23.6348C17.8736 23.6276 17.8529 23.6084 17.8491 23.577C17.8908 23.2691 17.9323 22.9612 17.9739 22.6533Z" 
fill="#C49F65"/>

</g>
</svg>