<?xml version="1.0" encoding="utf-8"?>
<!-- Generator: Adobe Illustrator 27.5.0, SVG Export Plug-In . SVG Version: 6.00 Build 0)  -->
<svg version="1.1" xmlns="http://www.w3.org/2000/svg" xmlns:xlink="http://www.w3.org/1999/xlink" x="0px" y="0px"
	 viewBox="0 0 500 500" style="enable-background:new 0 0 500 500;" xml:space="preserve">
<g id="Background_Complete">
	<g>
		<path style="fill:#F5F5F5;" d="M125.852,202.265c0.749-5.441-6.931-9.918-12.701-10.383c-2.752-0.222-5.61,0.199-8.217-0.71
			c-5.649-1.969-7.905-9.266-13.416-11.591c-4.12-1.738-8.864-0.191-12.859,1.82c-3.995,2.01-7.942,4.541-12.405,4.826
			c-3.882,0.248-8.097-1.191-11.494,0.705c-2.531,1.413-3.857,4.329-6.189,6.05c-2.282,1.683-5.259,2.04-8.091,2.194
			c-2.832,0.154-5.763,0.183-8.341,1.363c-2.578,1.18-4.711,3.907-4.176,6.692L125.852,202.265z"/>
	</g>
	<g>
		<g>
			<g>
				<rect x="384.649" y="87.78" style="fill:#E0E0E0;" width="1.106" height="58.94"/>
			</g>
		</g>
		<g>
			<g>
				<rect x="365.905" y="88.686" style="fill:#E0E0E0;" width="1.107" height="58.94"/>
			</g>
		</g>
		<g>
			<g>
				<rect x="347.163" y="87.621" style="fill:#E0E0E0;" width="1.106" height="58.94"/>
			</g>
		</g>
		<g>
			<g>
				<rect x="328.42" y="88.686" style="fill:#E0E0E0;" width="1.106" height="58.94"/>
			</g>
		</g>
		<g>
			<g>
				<g>
					<g>
						<rect x="327.732" y="134.473" style="fill:#EBEBEB;" width="134.428" height="347.219"/>
					</g>
				</g>
				<g>
					<g>
						<rect x="399.13" y="134.473" style="fill:#E0E0E0;" width="63.03" height="347.219"/>
					</g>
				</g>
			</g>
			<g>
				<g>
					<g>
						<rect x="355.919" y="158.479" style="fill:#F5F5F5;" width="12.087" height="29.365"/>
					</g>
				</g>
				<g>
					<g>
						<g>
							<path style="fill:#F5F5F5;" d="M399.13,199.369c0,0.33-15.984,0.598-35.697,0.598c-19.72,0-35.701-0.268-35.701-0.598
								c0-0.33,15.981-0.597,35.701-0.597C383.146,198.772,399.13,199.039,399.13,199.369z"/>
						</g>
					</g>
				</g>
			</g>
			<g>
				<g>
					<g>
						<rect x="355.919" y="216.38" style="fill:#F5F5F5;" width="12.087" height="29.365"/>
					</g>
				</g>
				<g>
					<g>
						<g>
							<path style="fill:#F5F5F5;" d="M399.13,257.27c0,0.33-15.984,0.598-35.697,0.598c-19.72,0-35.701-0.268-35.701-0.598
								c0-0.329,15.981-0.597,35.701-0.597C383.146,256.673,399.13,256.941,399.13,257.27z"/>
						</g>
					</g>
				</g>
			</g>
			<g>
				<g>
					<g>
						<rect x="355.919" y="279.77" style="fill:#F5F5F5;" width="12.087" height="29.365"/>
					</g>
				</g>
				<g>
					<g>
						<g>
							<path style="fill:#F5F5F5;" d="M399.13,320.66c0,0.33-15.984,0.598-35.697,0.598c-19.72,0-35.701-0.268-35.701-0.598
								c0-0.329,15.981-0.597,35.701-0.597C383.146,320.063,399.13,320.331,399.13,320.66z"/>
						</g>
					</g>
				</g>
			</g>
			<g>
				<g>
					<g>
						<rect x="355.919" y="343.16" style="fill:#F5F5F5;" width="12.087" height="29.365"/>
					</g>
				</g>
				<g>
					<g>
						<g>
							<path style="fill:#F5F5F5;" d="M399.13,384.051c0,0.33-15.984,0.598-35.697,0.598c-19.72,0-35.701-0.268-35.701-0.598
								c0-0.329,15.981-0.597,35.701-0.597C383.146,383.453,399.13,383.721,399.13,384.051z"/>
						</g>
					</g>
				</g>
			</g>
			<g>
				<g>
					<g>
						<rect x="355.919" y="406.55" style="fill:#F5F5F5;" width="12.087" height="29.365"/>
					</g>
				</g>
				<g>
					<g>
						<g>
							<path style="fill:#F5F5F5;" d="M399.13,447.44c0,0.33-15.984,0.598-35.697,0.598c-19.72,0-35.701-0.268-35.701-0.598
								c0-0.329,15.981-0.597,35.701-0.597C383.146,446.843,399.13,447.111,399.13,447.44z"/>
						</g>
					</g>
				</g>
			</g>
			<g>
				<g>
					<rect x="412.515" y="158.479" style="fill:#F5F5F5;" width="12.087" height="29.365"/>
				</g>
			</g>
			<g>
				<g>
					<rect x="438.737" y="158.479" style="fill:#F5F5F5;" width="12.087" height="29.365"/>
				</g>
			</g>
			<g>
				<g>
					<rect x="412.515" y="214.201" style="fill:#F5F5F5;" width="12.087" height="29.365"/>
				</g>
			</g>
			<g>
				<g>
					<rect x="438.737" y="214.201" style="fill:#F5F5F5;" width="12.087" height="29.365"/>
				</g>
			</g>
			<g>
				<g>
					<rect x="411.636" y="276.605" style="fill:#F5F5F5;" width="12.087" height="29.365"/>
				</g>
			</g>
			<g>
				<g>
					<rect x="437.858" y="276.605" style="fill:#F5F5F5;" width="12.087" height="29.365"/>
				</g>
			</g>
			<g>
				<g>
					<rect x="411.636" y="344.283" style="fill:#F5F5F5;" width="12.087" height="29.365"/>
				</g>
			</g>
			<g>
				<g>
					<rect x="437.858" y="344.283" style="fill:#F5F5F5;" width="12.087" height="29.365"/>
				</g>
			</g>
			<g>
				<g>
					<rect x="411.636" y="411.96" style="fill:#F5F5F5;" width="12.087" height="29.365"/>
				</g>
			</g>
			<g>
				<g>
					<rect x="437.858" y="411.96" style="fill:#F5F5F5;" width="12.087" height="29.365"/>
				</g>
			</g>
		</g>
		<g>
			<g>
				<polygon style="fill:#E0E0E0;" points="399.13,137.51 399.13,121.529 412.515,121.529 412.515,112.756 430.645,112.756 
					430.645,104.922 462.16,104.922 462.16,136.257 				"/>
			</g>
		</g>
		<g>
			<g>
				<rect x="398.53" y="78.902" style="fill:#E0E0E0;" width="1.106" height="58.94"/>
			</g>
		</g>
		<g>
			<g>
				<rect x="411.962" y="78.902" style="fill:#E0E0E0;" width="1.106" height="58.94"/>
			</g>
		</g>
		<g>
			<g>
				<rect x="430.092" y="70.6" style="fill:#E0E0E0;" width="1.106" height="58.94"/>
			</g>
		</g>
		<g>
			<g>
				<rect x="460.678" y="70.6" style="fill:#E0E0E0;" width="1.106" height="58.94"/>
			</g>
		</g>
		<g>
			<g>
				<rect x="445.385" y="70.6" style="fill:#E0E0E0;" width="1.106" height="58.94"/>
			</g>
		</g>
		<g>
			<g>
				<rect x="329.475" y="118.748" style="fill:#E0E0E0;" width="69.654" height="1.106"/>
			</g>
		</g>
		<g>
			<g>
				<rect x="329.62" y="104.369" style="fill:#E0E0E0;" width="101.17" height="1.106"/>
			</g>
		</g>
	</g>
	<g>
		<g>
			<g>
				<rect x="256.962" y="191.029" style="fill:#E0E0E0;" width="1.106" height="58.94"/>
			</g>
		</g>
		<g>
			<g>
				<rect x="238.219" y="191.935" style="fill:#E0E0E0;" width="1.106" height="58.939"/>
			</g>
		</g>
		<g>
			<g>
				<rect x="219.476" y="190.87" style="fill:#E0E0E0;" width="1.106" height="58.939"/>
			</g>
		</g>
		<g>
			<g>
				<rect x="200.733" y="191.935" style="fill:#E0E0E0;" width="1.107" height="58.939"/>
			</g>
		</g>
		<g>
			<g>
				<g>
					<g>
						<rect x="200.046" y="237.722" style="fill:#EBEBEB;" width="134.428" height="243.97"/>
					</g>
				</g>
				<g>
					<g>
						<rect x="271.443" y="237.722" style="fill:#E0E0E0;" width="63.03" height="243.97"/>
					</g>
				</g>
			</g>
			<g>
				<g>
					<g>
						<rect x="228.232" y="261.728" style="fill:#F5F5F5;" width="12.087" height="29.366"/>
					</g>
				</g>
				<g>
					<g>
						<g>
							<path style="fill:#F5F5F5;" d="M271.443,302.618c0,0.33-15.984,0.598-35.697,0.598c-19.72,0-35.701-0.268-35.701-0.598
								c0-0.33,15.981-0.597,35.701-0.597C255.459,302.021,271.443,302.288,271.443,302.618z"/>
						</g>
					</g>
				</g>
			</g>
			<g>
				<g>
					<g>
						<rect x="228.232" y="319.629" style="fill:#F5F5F5;" width="12.087" height="29.365"/>
					</g>
				</g>
				<g>
					<g>
						<g>
							<path style="fill:#F5F5F5;" d="M271.443,360.519c0,0.33-15.984,0.598-35.697,0.598c-19.72,0-35.701-0.268-35.701-0.598
								c0-0.329,15.981-0.597,35.701-0.597C255.459,359.922,271.443,360.19,271.443,360.519z"/>
						</g>
					</g>
				</g>
			</g>
			<g>
				<g>
					<g>
						<rect x="228.232" y="383.019" style="fill:#F5F5F5;" width="12.087" height="29.365"/>
					</g>
				</g>
				<g>
					<g>
						<g>
							<path style="fill:#F5F5F5;" d="M271.443,423.909c0,0.33-15.984,0.598-35.697,0.598c-19.72,0-35.701-0.268-35.701-0.598
								c0-0.329,15.981-0.597,35.701-0.597C255.459,423.312,271.443,423.58,271.443,423.909z"/>
						</g>
					</g>
				</g>
			</g>
			<g>
				<g>
					<g>
						<rect x="228.232" y="446.409" style="fill:#F5F5F5;" width="12.087" height="29.365"/>
					</g>
				</g>
			</g>
			<g>
				<g>
					<rect x="284.828" y="261.728" style="fill:#F5F5F5;" width="12.087" height="29.366"/>
				</g>
			</g>
			<g>
				<g>
					<rect x="311.051" y="261.728" style="fill:#F5F5F5;" width="12.087" height="29.366"/>
				</g>
			</g>
			<g>
				<g>
					<rect x="284.828" y="317.45" style="fill:#F5F5F5;" width="12.087" height="29.365"/>
				</g>
			</g>
			<g>
				<g>
					<rect x="311.051" y="317.45" style="fill:#F5F5F5;" width="12.087" height="29.365"/>
				</g>
			</g>
			<g>
				<g>
					<rect x="283.949" y="379.855" style="fill:#F5F5F5;" width="12.087" height="29.365"/>
				</g>
			</g>
			<g>
				<g>
					<rect x="310.171" y="379.855" style="fill:#F5F5F5;" width="12.087" height="29.365"/>
				</g>
			</g>
			<g>
				<g>
					<rect x="283.949" y="447.532" style="fill:#F5F5F5;" width="12.087" height="29.365"/>
				</g>
			</g>
			<g>
				<g>
					<rect x="310.171" y="447.532" style="fill:#F5F5F5;" width="12.087" height="29.365"/>
				</g>
			</g>
		</g>
		<g>
			<g>
				<polygon style="fill:#E0E0E0;" points="271.443,240.759 271.443,224.778 284.828,224.778 284.828,216.005 302.958,216.005 
					302.958,208.171 334.474,208.171 334.474,239.506 				"/>
			</g>
		</g>
		<g>
			<g>
				<rect x="270.843" y="182.151" style="fill:#E0E0E0;" width="1.107" height="58.94"/>
			</g>
		</g>
		<g>
			<g>
				<rect x="284.275" y="182.151" style="fill:#E0E0E0;" width="1.106" height="58.94"/>
			</g>
		</g>
		<g>
			<g>
				<rect x="302.406" y="173.849" style="fill:#E0E0E0;" width="1.107" height="58.939"/>
			</g>
		</g>
		<g>
			<g>
				<rect x="332.991" y="173.849" style="fill:#E0E0E0;" width="1.107" height="58.939"/>
			</g>
		</g>
		<g>
			<g>
				<rect x="317.698" y="173.849" style="fill:#E0E0E0;" width="1.106" height="58.939"/>
			</g>
		</g>
		<g>
			<g>
				<rect x="201.789" y="221.997" style="fill:#E0E0E0;" width="69.654" height="1.107"/>
			</g>
		</g>
		<g>
			<g>
				<rect x="201.933" y="207.618" style="fill:#E0E0E0;" width="101.17" height="1.107"/>
			</g>
		</g>
	</g>
	<g>
		<g>
			<g>
				<g>
					<g>
						<path style="fill:#E0E0E0;" d="M114.391,44.306h0.034c0.011,0,0.021-0.005,0.032-0.007c0.167-0.017,0.299-0.154,0.299-0.325
							l0-0.272l0,0l-0.007-9.513c-0.002-3.026-2.456-5.477-5.482-5.475c-1.117,0.001-2.154,0.337-3.019,0.911l-4.249-0.934
							c-0.213-0.645-0.631-1.228-1.251-1.618c-1.417-0.892-3.29-0.466-4.182,0.952c-0.892,1.418-0.466,3.29,0.952,4.182
							c0.587,0.369,1.251,0.501,1.892,0.441l4.384,5.227l0.004,5.836l0,0l0,0.271c0,0.137,0.083,0.255,0.202,0.305
							c0.04,0.017,0.083,0.026,0.129,0.026l0,0l0,0h0.105l-2.319,36.093h0.723h0.468h0.117l0.51-7.938l4.995,6.592l-1.051,1.346
							h1.034l0.526-0.674l0.51,0.674h1.023l-1.014-1.338l5.174-6.626l0.522,7.965h0.118h0.468h0.722L114.391,44.306z M109.529,44.31
							l3.376,7.099l-7.389,0.005l3.479-7.104L109.529,44.31z M110.432,44.309l2.651-0.002l0.424,6.468L110.432,44.309z
							 M106.703,44.312l1.383-0.001l-2.929,5.98l0.384-5.978L106.703,44.312z M104.895,54.379l3.948,6.403l-4.85,7.635
							L104.895,54.379z M105.408,53.656l7.965-0.005l-4.044,6.365L105.408,53.656z M113.757,54.568l0.927,14.131l-4.879-7.911
							L113.757,54.568z M109.319,61.553l4.744,7.693l-9.635,0.007L109.319,61.553z M104.018,71.495l10.623-0.007l-5.394,6.908
							L104.018,71.495z"/>
					</g>
				</g>
			</g>
			<g>
				<g>
					<g>
						<path style="fill:#E0E0E0;" d="M119.531,103.762h-1.132h-0.167v7.587l-5.541-6.116l5.698-6.1l0.673,0l-0.001-1.824
							l-13.704,0.008l0.001,1.824l0.917-0.001l5.515,6.087l-5.94,6.359v-7.824h-0.167h-1.132h-1.098v186.997h2.397v-1.593
							l12.382-0.007v1.6h2.397V103.762H119.531z M106.275,260.008l5.515,6.087l-5.94,6.359v-12.445L106.275,260.008z
							 M107.17,260.008l10.312-0.006l-5.237,5.607L107.17,260.008z M106.468,258.184l5.769-6.175l5.59,6.169L106.468,258.184z
							 M105.85,257.875v-12.445l0.425,0l5.515,6.087L105.85,257.875z M107.17,245.428l10.312-0.006l-5.237,5.607L107.17,245.428z
							 M106.468,243.605l5.769-6.176l5.59,6.169L106.468,243.605z M105.85,243.296V230.85l0.425,0l5.515,6.087L105.85,243.296z
							 M107.17,230.85l10.312-0.006l-5.237,5.607L107.17,230.85z M106.468,229.026l5.769-6.175l5.59,6.169L106.468,229.026z
							 M105.85,228.717v-12.445l0.425,0l5.515,6.087L105.85,228.717z M107.17,216.271l10.312-0.006l-5.237,5.607L107.17,216.271z
							 M106.468,214.447l5.769-6.175l5.59,6.169L106.468,214.447z M105.85,214.138v-12.445l0.425,0l5.515,6.087L105.85,214.138z
							 M107.17,201.692l10.312-0.006l-5.237,5.607L107.17,201.692z M106.468,199.868l5.769-6.176l5.59,6.169L106.468,199.868z
							 M105.85,199.559v-12.445l0.425,0l5.515,6.087L105.85,199.559z M107.17,187.113l10.312-0.006l-5.237,5.607L107.17,187.113z
							 M106.468,185.289l5.769-6.175l5.59,6.169L106.468,185.289z M105.85,184.98v-12.445l0.425,0l5.515,6.087L105.85,184.98z
							 M107.17,172.534l10.312-0.006l-5.237,5.607L107.17,172.534z M106.468,170.71l5.769-6.175l5.59,6.169L106.468,170.71z
							 M105.85,170.401v-12.445l0.425,0l5.515,6.087L105.85,170.401z M107.17,157.955l10.312-0.006l-5.237,5.607L107.17,157.955z
							 M106.468,156.131l5.769-6.175l5.59,6.169L106.468,156.131z M105.85,155.822v-12.445l0.425,0l5.515,6.087L105.85,155.822z
							 M107.17,143.376l10.312-0.006l-5.237,5.607L107.17,143.376z M106.468,141.553l5.769-6.175l5.59,6.169L106.468,141.553z
							 M105.85,141.243v-12.445l0.425,0l5.515,6.087L105.85,141.243z M107.17,128.797l10.312-0.006l-5.237,5.607L107.17,128.797z
							 M106.468,272.763l5.769-6.176l5.59,6.169L106.468,272.763z M112.691,266.101l5.541-5.932v12.047L112.691,266.101z
							 M112.691,251.523l5.541-5.932v12.047L112.691,251.523z M112.691,236.943l5.541-5.932v12.047L112.691,236.943z
							 M112.691,222.364l5.541-5.932v12.047L112.691,222.364z M112.691,207.786l5.541-5.932v12.047L112.691,207.786z
							 M112.691,193.206l5.541-5.932v12.048L112.691,193.206z M112.691,178.628l5.541-5.932v12.047L112.691,178.628z
							 M112.691,164.048l5.541-5.932v12.047L112.691,164.048z M112.691,149.469l5.541-5.932v12.047L112.691,149.469z
							 M112.691,134.891l5.541-5.932v12.048L112.691,134.891z M118.053,126.967l-11.818,0.007l6.002-6.425L118.053,126.967z
							 M112.691,120.062l5.541-5.932v12.047L112.691,120.062z M105.85,126.414v-12.445l0.425,0l5.515,6.087L105.85,126.414z
							 M105.85,274.587l0.425,0l5.515,6.087l-5.94,6.359V274.587z M107.17,274.587l10.312-0.006l-5.237,5.607L107.17,274.587z
							 M118.232,274.749v12.047l-5.541-6.116L118.232,274.749z M112.245,119.569l-5.075-5.601l10.312-0.006L112.245,119.569z
							 M112.237,281.167l5.59,6.169l-11.358,0.006L112.237,281.167z M107.17,99.14l10.312-0.006l-5.237,5.607L107.17,99.14z
							 M118.053,112.138l-11.818,0.007l6.002-6.425L118.053,112.138z"/>
					</g>
				</g>
			</g>
			<g>
				<g>
					<g>
						<path style="fill:#E0E0E0;" d="M300.826,95.204L282.82,81.858c-0.877-0.65-1.939-1.001-3.031-1.001H162.923h-2.395H43.896
							v2.397h1.086l0.007,12.382h-1.093v2.396h116.632h2.395H299.97c0.794,0,1.438-0.644,1.438-1.437v-0.235
							C301.408,95.904,301.192,95.476,300.826,95.204z M271.591,88.795l-5.932-5.541h12.047L271.591,88.795z M278.247,83.659
							l0.006,11.358l-6.176-5.769L278.247,83.659z M265.491,84.004l5.607,5.237l-5.601,5.075L265.491,84.004z M257.012,88.795
							l-5.932-5.541h12.048L257.012,88.795z M263.668,83.659l0.006,11.358l-6.176-5.769L263.668,83.659z M250.912,84.004
							l5.607,5.237l-5.601,5.075L250.912,84.004z M242.433,88.795l-5.932-5.541h12.048L242.433,88.795z M249.089,83.659
							l0.006,11.358l-6.176-5.769L249.089,83.659z M236.333,84.004l5.607,5.237l-5.601,5.075L236.333,84.004z M227.854,88.795
							l-5.932-5.541h12.048L227.854,88.795z M234.51,83.659l0.006,11.358l-6.176-5.769L234.51,83.659z M221.754,84.004l5.607,5.237
							l-5.601,5.075L221.754,84.004z M213.275,88.795l-5.932-5.541h12.047L213.275,88.795z M219.931,83.659l0.006,11.358
							l-6.176-5.769L219.931,83.659z M207.175,84.004l5.607,5.237l-5.601,5.075L207.175,84.004z M198.696,88.795l-5.932-5.541
							h12.048L198.696,88.795z M205.352,83.659l0.006,11.358l-6.176-5.769L205.352,83.659z M192.596,84.004l5.607,5.237
							l-5.601,5.075L192.596,84.004z M184.117,88.795l-5.932-5.541h12.048L184.117,88.795z M190.773,83.659l0.006,11.358
							l-6.176-5.769L190.773,83.659z M178.018,84.004l5.606,5.237l-5.601,5.075L178.018,84.004z M169.538,88.795l-5.932-5.541
							h12.047L169.538,88.795z M176.194,83.659l0.006,11.358l-6.175-5.769L176.194,83.659z M163.438,84.004l5.607,5.237
							l-5.601,5.075L163.438,84.004z M161.621,95.018l-6.175-5.769l6.169-5.59L161.621,95.018z M163.445,95.211l6.087-5.515
							l6.359,5.94h-12.445L163.445,95.211z M178.024,95.211l6.087-5.515l6.359,5.94h-12.445L178.024,95.211z M192.603,95.211
							l6.087-5.515l6.359,5.94h-12.445L192.603,95.211z M207.182,95.211l6.087-5.515l6.359,5.94h-12.445L207.182,95.211z
							 M221.761,95.211l6.087-5.515l6.359,5.94h-12.445L221.761,95.211z M236.34,95.211l6.087-5.515l6.359,5.94H236.34
							L236.34,95.211z M250.919,95.211l6.087-5.515l6.359,5.94h-12.445L250.919,95.211z M265.498,95.211l6.087-5.515l6.359,5.94
							h-12.445L265.498,95.211z M161.075,83.253l-6.116,5.541l-5.932-5.541h11.501H161.075z M46.807,84.004l5.607,5.237
							l-5.601,5.075L46.807,84.004z M46.974,83.253h12.048l-6.116,5.541L46.974,83.253z M140.38,88.795l-5.932-5.541h12.048
							L140.38,88.795z M147.036,83.659l0.006,11.358l-6.176-5.769L147.036,83.659z M134.281,84.004l5.607,5.237l-5.601,5.075
							L134.281,84.004z M125.801,88.795l-5.932-5.541h12.048L125.801,88.795z M132.457,83.659l0.006,11.358l-6.175-5.769
							L132.457,83.659z M119.702,84.004l5.606,5.237l-5.601,5.075L119.702,84.004z M111.222,88.795l-5.932-5.541h12.048
							L111.222,88.795z M117.878,83.659l0.006,11.358l-6.176-5.769L117.878,83.659z M105.122,84.004l5.607,5.237l-5.601,5.075
							L105.122,84.004z M96.643,88.795l-5.932-5.541h12.047L96.643,88.795z M103.299,83.659l0.006,11.358l-6.176-5.769
							L103.299,83.659z M90.543,84.004l5.607,5.237l-5.601,5.075L90.543,84.004z M82.064,88.795l-5.932-5.541H88.18L82.064,88.795z
							 M88.72,83.659l0.006,11.358l-6.175-5.769L88.72,83.659z M75.965,84.004l5.606,5.237l-5.601,5.075L75.965,84.004z
							 M67.485,88.795l-5.932-5.541h12.048L67.485,88.795z M74.141,83.659l0.006,11.358l-6.175-5.769L74.141,83.659z M61.386,84.004
							l5.607,5.237l-5.601,5.075L61.386,84.004z M59.562,83.659l0.006,11.358l-6.175-5.769L59.562,83.659z M61.392,95.211
							l6.087-5.515l6.359,5.94H61.392L61.392,95.211z M75.971,95.211l6.087-5.515l6.359,5.94H75.971L75.971,95.211z M90.55,95.211
							l6.087-5.515l6.359,5.94H90.55L90.55,95.211z M105.129,95.211l6.087-5.515l6.359,5.94h-12.445L105.129,95.211z
							 M119.708,95.211l6.087-5.515l6.359,5.94h-12.445L119.708,95.211z M134.287,95.211l6.087-5.515l6.359,5.94h-12.445
							L134.287,95.211z M148.859,84.004l5.607,5.237l-5.601,5.075L148.859,84.004z M46.813,95.211l6.087-5.515l6.359,5.94H46.813
							L46.813,95.211z M148.866,95.635l0-0.425l6.087-5.515l6.359,5.94h-0.783H148.866z M280.077,95.635l-0.007-12.359
							c1.002,0.057,1.973,0.376,2.801,0.951l16.394,11.407H280.077z"/>
					</g>
				</g>
			</g>
			<g>
				<g>
					<g>
						<path style="fill:#EBEBEB;" d="M96.471,80.639c0.14,7.979-0.123,32.072-0.123,32.072h28.935l-0.778-4.754
							c-0.08-0.488-0.071-0.986,0.027-1.47l2.117-10.492l-5.187-16.151c-0.33-1.027-1.278-1.724-2.357-1.724
							c-4.296,0-15.147,0-20.153,0C97.563,78.119,96.447,79.25,96.471,80.639z"/>
					</g>
				</g>
			</g>
			<g>
				<g>
					<g>
						<polygon style="fill:#F5F5F5;" points="109.747,80.407 109.747,98.032 123.589,98.032 125.021,96.129 119.649,80.407 						
							"/>
					</g>
				</g>
			</g>
			<g>
				<g>
					<g>
						<g>
							<path style="fill:#E0E0E0;" d="M279.789,80.857c0,0-0.223-0.046-0.651-0.16c-0.445-0.122-1.075-0.295-1.897-0.521
								c-1.682-0.474-4.131-1.164-7.279-2.052c-6.332-1.809-15.465-4.418-26.744-7.64c-22.582-6.504-53.752-15.481-88.178-25.396
								c-19.799-5.73-38.517-11.148-54.888-15.886l0.226-0.054c-15.76,14.739-29.056,27.111-38.44,35.768
								c-4.692,4.329-8.405,7.73-10.963,10.03c-1.274,1.155-2.27,2.024-2.942,2.609c-0.679,0.581-1.059,0.841-1.059,0.841
								s0.084-0.085,0.254-0.234c0.169-0.153,0.431-0.357,0.755-0.665c0.669-0.616,1.636-1.506,2.892-2.661
								c2.53-2.356,6.211-5.785,10.872-10.126c9.327-8.742,22.575-21.158,38.31-35.906l0.098-0.092l0.129,0.037
								c16.375,4.723,35.099,10.123,54.903,15.834c34.41,9.973,65.564,19.002,88.135,25.544c11.259,3.289,20.377,5.953,26.698,7.8
								c3.137,0.928,5.576,1.65,7.252,2.146c0.815,0.247,1.441,0.437,1.882,0.571C279.576,80.776,279.789,80.857,279.789,80.857z"/>
						</g>
					</g>
				</g>
			</g>
			<g>
				<g>
					<g>
						<path style="fill:#EBEBEB;" d="M34.836,77.427c-0.868,0.001-1.681,0.396-2.224,1.073c-1.341,1.669-3.367,4.718-3.556,5.025
							c-0.193,0.313-0.096,10.554-0.036,15.64c0.019,1.557,1.286,2.808,2.842,2.808h25.632c1.57,0,2.843-1.273,2.843-2.843V80.254
							c0-1.571-1.274-2.844-2.845-2.843L34.836,77.427z"/>
					</g>
				</g>
			</g>
			<g>
				<g>
					<g>
						<path style="fill:#E0E0E0;" d="M119.531,290.759h-1.132h-0.167v10.623l-5.541-6.115l5.698-6.1l0.673,0l-0.001-1.824
							l-13.704,0.008l0.001,1.824l0.917-0.001l5.515,6.087l-5.94,6.359v-10.859h-0.167h-1.132h-1.098v190.033h2.397v-1.593
							l12.382-0.007v1.6h2.397V290.759H119.531z M106.275,450.041l5.515,6.087l-5.94,6.359v-12.445L106.275,450.041z
							 M107.17,450.041l10.312-0.006l-5.237,5.607L107.17,450.041z M106.468,448.218l5.769-6.176l5.59,6.169L106.468,448.218z
							 M105.85,447.908v-12.445l0.425,0l5.515,6.087L105.85,447.908z M107.17,435.462l10.312-0.006l-5.237,5.607L107.17,435.462z
							 M106.468,433.639l5.769-6.176l5.59,6.169L106.468,433.639z M105.85,433.329v-12.445l0.425,0l5.515,6.087L105.85,433.329z
							 M107.17,420.883l10.312-0.006l-5.237,5.607L107.17,420.883z M106.468,419.06l5.769-6.175l5.59,6.169L106.468,419.06z
							 M105.85,418.75v-12.445l0.425,0l5.515,6.087L105.85,418.75z M107.17,406.304l10.312-0.006l-5.237,5.607L107.17,406.304z
							 M106.468,404.48l5.769-6.175l5.59,6.169L106.468,404.48z M105.85,404.171v-12.445l0.425,0l5.515,6.087L105.85,404.171z
							 M107.17,391.725l10.312-0.006l-5.237,5.607L107.17,391.725z M106.468,389.902l5.769-6.176l5.59,6.169L106.468,389.902z
							 M105.85,389.592v-12.445l0.425,0l5.515,6.087L105.85,389.592z M107.17,377.146l10.312-0.006l-5.237,5.607L107.17,377.146z
							 M106.468,375.323l5.769-6.176l5.59,6.169L106.468,375.323z M105.85,375.013v-12.445l0.425,0l5.515,6.087L105.85,375.013z
							 M107.17,362.567l10.312-0.006l-5.237,5.607L107.17,362.567z M106.468,360.743l5.769-6.175l5.59,6.169L106.468,360.743z
							 M105.85,360.434v-12.445l0.425,0l5.515,6.087L105.85,360.434z M107.17,347.988l10.312-0.006l-5.237,5.607L107.17,347.988z
							 M106.468,346.164l5.769-6.175l5.59,6.169L106.468,346.164z M105.85,345.855V333.41l0.425,0l5.515,6.087L105.85,345.855z
							 M107.17,333.409l10.312-0.006l-5.237,5.607L107.17,333.409z M106.468,331.586l5.769-6.175l5.59,6.169L106.468,331.586z
							 M105.85,331.276v-12.445l0.425,0l5.515,6.087L105.85,331.276z M107.17,318.83l10.312-0.006l-5.237,5.607L107.17,318.83z
							 M106.468,462.797l5.769-6.176l5.59,6.169L106.468,462.797z M112.691,456.135l5.541-5.932v12.047L112.691,456.135z
							 M112.691,441.556l5.541-5.932v12.047L112.691,441.556z M112.691,426.977l5.541-5.932v12.047L112.691,426.977z
							 M112.691,412.398l5.541-5.932v12.047L112.691,412.398z M112.691,397.819l5.541-5.932v12.047L112.691,397.819z
							 M112.691,383.24l5.541-5.932v12.048L112.691,383.24z M112.691,368.661l5.541-5.932v12.047L112.691,368.661z M112.691,354.082
							l5.541-5.932v12.047L112.691,354.082z M112.691,339.503l5.541-5.932v12.047L112.691,339.503z M112.691,324.924l5.541-5.932
							v12.047L112.691,324.924z M118.053,317l-11.818,0.007l6.002-6.425L118.053,317z M112.691,310.095l5.541-5.932v12.047
							L112.691,310.095z M105.85,316.447v-12.445l0.425,0l5.515,6.087L105.85,316.447z M105.85,464.62l0.425,0l5.515,6.087
							l-5.94,6.359V464.62z M107.17,464.62l10.312-0.006l-5.237,5.607L107.17,464.62z M118.232,464.782v12.047l-5.541-6.116
							L118.232,464.782z M112.245,309.602l-5.075-5.601l10.312-0.006L112.245,309.602z M112.237,471.2l5.59,6.169l-11.358,0.006
							L112.237,471.2z M107.17,289.173l10.312-0.006l-5.237,5.607L107.17,289.173z M118.053,302.171l-11.818,0.007l6.002-6.425
							L118.053,302.171z"/>
					</g>
				</g>
			</g>
		</g>
		<g>
			<g>
				<path style="fill:#EBEBEB;" d="M113.203,34.769c0,2.106-1.707,3.813-3.813,3.813c-2.106,0-3.813-1.707-3.813-3.813
					c0-2.106,1.707-3.813,3.813-3.813C111.496,30.956,113.203,32.663,113.203,34.769z"/>
			</g>
		</g>
		<g>
			<g>
				<path style="fill:#EBEBEB;" d="M101.377,29.756c0,1.172-0.95,2.122-2.122,2.122c-1.172,0-2.122-0.95-2.122-2.122
					c0-1.172,0.95-2.122,2.122-2.122C100.427,27.634,101.377,28.584,101.377,29.756z"/>
			</g>
		</g>
	</g>
	<g>
		<path style="fill:#EBEBEB;" d="M360.746,53.139c0.589-4.277-5.448-7.796-9.984-8.162c-2.163-0.174-4.41,0.156-6.46-0.558
			c-4.44-1.548-6.214-7.284-10.546-9.111c-3.239-1.366-6.968-0.15-10.108,1.43c-3.14,1.58-6.243,3.569-9.751,3.794
			c-3.051,0.195-6.365-0.936-9.035,0.554c-1.99,1.111-3.032,3.403-4.865,4.756c-1.794,1.323-4.134,1.603-6.36,1.724
			s-4.53,0.144-6.557,1.071c-2.027,0.928-3.703,3.071-3.283,5.26L360.746,53.139z"/>
	</g>
</g>
<g id="Background_Simple" style="display:none;">
	<path style="display:inline;fill:#F5F5F5;" d="M384.831,134.881l-1.77-2.917c-14.921-24.589-41.9-39.411-70.343-37.613
		c-3.656,0.231-7.297,0.726-10.889,1.495c-25.861,5.536-48.363,25.092-57.691,50.139c-5.485,14.73-7.018,31.69-17.428,43.382
		c-13.548,15.217-36.548,15.695-56.77,15.064c-20.222-0.631-43.238-0.093-56.72,15.184c-8.443,9.567-11.127,23.173-10.446,35.986
		c1.803,33.922,25.44,64.254,55.501,79.331c30.061,15.076,65.455,16.427,98.355,9.795c46.089-9.291,89.92-34.805,116.265-74.213
		C399.243,231.105,405.91,177.415,384.831,134.881z"/>
</g>
<g id="Floor">
	<g>
		<path style="fill:#263238;" d="M462.246,481.615c0,0.144-95.033,0.26-212.236,0.26c-117.243,0-212.256-0.117-212.256-0.26
			s95.013-0.26,212.256-0.26C367.213,481.355,462.246,481.471,462.246,481.615z"/>
	</g>
</g>
<g id="Plant">
	<g>
		<g>
			<g>
				<path style="fill:#FF725E;" d="M154.219,446.439c1.657,0.719,2.876,2.251,3.487,3.95c0.612,1.7,0.667,3.556,0.463,5.351
					c-0.394,3.473-2.367,6.978-4.492,9.753c-2.924-2.552-3.597-7.004-3.796-9.284C149.566,452.606,151.185,445.902,154.219,446.439"
					/>
			</g>
		</g>
		<g>
			<g>
				<path style="fill:#FF725E;" d="M157.077,471.226c-0.468-1.963,0.349-4.116,1.855-5.458c1.507-1.342,3.611-1.91,5.623-1.757
					c0.93,0.071,1.936,0.342,2.468,1.108c0.498,0.716,0.442,1.716,0.038,2.488c-0.404,0.773-1.103,1.351-1.842,1.815
					C162.686,471.012,159.942,472.086,157.077,471.226"/>
			</g>
		</g>
		<g>
			<g>
				<g>
					<path style="fill:#263238;" d="M153.327,481.874c-0.018-0.004,0.023-0.257,0.104-0.713c0.092-0.502,0.211-1.15,0.354-1.928
						c0.323-1.612,0.738-3.92,1.991-6.161c1.235-2.235,2.965-3.882,4.421-4.698c0.723-0.418,1.356-0.668,1.803-0.797
						c0.221-0.074,0.401-0.103,0.519-0.132c0.12-0.025,0.183-0.034,0.186-0.026c0.021,0.057-1.013,0.243-2.415,1.109
						c-1.406,0.841-3.077,2.471-4.292,4.668c-1.228,2.195-1.669,4.471-2.036,6.074c-0.177,0.808-0.321,1.463-0.433,1.913
						C153.416,481.631,153.343,481.878,153.327,481.874z"/>
				</g>
			</g>
		</g>
		<g>
			<g>
				<g>
					<path style="fill:#263238;" d="M153.437,451.654c0.009,0,0.021,0.107,0.036,0.311c0.014,0.231,0.031,0.528,0.053,0.895
						c0.042,0.777,0.087,1.903,0.132,3.294c0.09,2.783,0.161,6.629,0.143,10.877c-0.019,4.25-0.123,8.095-0.237,10.877
						c-0.057,1.391-0.112,2.516-0.161,3.293c-0.025,0.367-0.045,0.664-0.061,0.895c-0.017,0.204-0.03,0.311-0.038,0.311
						c-0.009,0-0.013-0.108-0.012-0.313c0.003-0.232,0.008-0.529,0.013-0.896c0.02-0.81,0.047-1.927,0.08-3.295
						c0.068-2.782,0.144-6.626,0.163-10.872c0.018-4.245-0.024-8.089-0.069-10.872c-0.021-1.368-0.039-2.486-0.051-3.295
						c-0.002-0.368-0.004-0.665-0.006-0.897C153.423,451.762,153.428,451.654,153.437,451.654z"/>
				</g>
			</g>
		</g>
		<g>
			<g>
				<path style="fill:#FF725E;" d="M152.018,473.34c-0.665-4.202-3.497-8.001-7.334-9.838c-0.977-0.468-2.253-0.774-3.056-0.047
					c-0.805,0.728-0.624,2.035-0.231,3.046c1.638,4.208,6.037,7.178,10.552,7.125"/>
			</g>
		</g>
		<g>
			<g>
				<g>
					<path style="fill:#263238;" d="M145.158,466.795c0.008-0.016,0.228,0.081,0.62,0.271c0.197,0.093,0.438,0.209,0.701,0.374
						c0.263,0.164,0.58,0.324,0.893,0.56c0.319,0.225,0.675,0.465,1.021,0.769c0.364,0.283,0.717,0.625,1.087,0.988
						c0.72,0.742,1.446,1.629,2.065,2.654c0.61,1.031,1.052,2.088,1.361,3.076c0.139,0.499,0.273,0.973,0.344,1.429
						c0.099,0.45,0.136,0.878,0.175,1.267c0.054,0.388,0.036,0.743,0.049,1.053c0.014,0.31-0.006,0.577-0.024,0.794
						c-0.032,0.435-0.058,0.674-0.075,0.673c-0.057-0.002,0.042-0.966-0.128-2.501c-0.051-0.383-0.097-0.803-0.203-1.245
						c-0.078-0.447-0.218-0.911-0.36-1.4c-0.316-0.968-0.756-2.003-1.355-3.015c-0.609-1.006-1.316-1.881-2.015-2.621
						c-0.36-0.361-0.702-0.704-1.055-0.99c-0.335-0.306-0.681-0.551-0.989-0.783C146.012,467.246,145.132,466.845,145.158,466.795z"
						/>
				</g>
			</g>
		</g>
	</g>
</g>
<g id="Toolbox">
	<g>
		<rect x="127.262" y="237.637" style="fill:#455A64;" width="40.168" height="20.51"/>
		<g>
			<path style="fill:#263238;" d="M160.6,233.647c-0.036,0-0.07-0.518-0.101-1.455c-0.013-0.499-0.028-1.067-0.044-1.707
				c-0.006-0.337-0.013-0.693-0.02-1.066c0.011-0.356-0.108-0.695-0.376-0.951c-0.279-0.261-0.62-0.359-1.083-0.322
				c-0.459,0.005-0.935,0.01-1.425,0.015c-0.991,0.008-2.042,0.016-3.145,0.024c-2.225,0.006-4.655,0.013-7.205,0.021
				c-2.551-0.007-4.981-0.014-7.207-0.021c-1.103-0.008-2.154-0.016-3.145-0.024c-0.473,0.007-1.012-0.036-1.382,0.011
				c-0.385,0.075-0.702,0.349-0.848,0.68c-0.151,0.318-0.09,0.726-0.112,1.109c-0.007,0.373-0.014,0.728-0.02,1.066
				c-0.017,0.64-0.031,1.207-0.044,1.707c-0.031,0.937-0.065,1.455-0.101,1.455c-0.036,0-0.07-0.518-0.101-1.455
				c-0.013-0.499-0.028-1.067-0.044-1.707c-0.006-0.337-0.013-0.693-0.02-1.066c-0.003-0.19-0.006-0.383-0.009-0.582
				c-0.007-0.208,0.023-0.453,0.114-0.67c0.179-0.44,0.587-0.815,1.104-0.93c0.536-0.075,0.955-0.029,1.465-0.05
				c0.991-0.008,2.042-0.016,3.145-0.024c2.226-0.006,4.656-0.013,7.207-0.021c2.55,0.007,4.98,0.014,7.205,0.021
				c1.102,0.008,2.154,0.016,3.145,0.024c0.49,0.005,0.966,0.01,1.425,0.015c0.214,0.001,0.484-0.003,0.723,0.08
				c0.238,0.079,0.449,0.213,0.617,0.38c0.341,0.331,0.48,0.82,0.45,1.214c-0.007,0.373-0.014,0.729-0.02,1.066
				c-0.017,0.64-0.031,1.207-0.044,1.707C160.671,233.129,160.636,233.647,160.6,233.647z"/>
		</g>
		<polyline style="fill:#455A64;" points="130.955,238.19 133.397,232.496 161.446,232.496 164.737,238.563 131.294,238.563 		"/>
		<g>
			<path style="fill:#263238;" d="M167.668,248.226c0,0.144-9.023,0.26-20.15,0.26c-11.132,0-20.152-0.117-20.152-0.26
				s9.021-0.26,20.152-0.26C158.646,247.966,167.668,248.082,167.668,248.226z"/>
		</g>
		<g>
			<path style="fill:#263238;" d="M167.415,237.749c0,0.144-9.023,0.26-20.15,0.26c-11.132,0-20.152-0.117-20.152-0.26
				s9.021-0.26,20.152-0.26C158.392,237.489,167.415,237.605,167.415,237.749z"/>
		</g>
	</g>
</g>
<g id="Character_1_">
	<path style="fill:#FFBF9D;" d="M176.532,103.914l5.914-7.267l6.038,9.824l25.375,7.695l-4.381,9.927
		c0,0-27.428-10.878-28.47-11.576C179.966,111.819,176.532,103.914,176.532,103.914z"/>
	<g>
		<path style="fill:#FF725E;" d="M218.572,164.297c0.165,0.11,5.13,3.515,5.13,3.515s1.159,12.429,0,14.194
			c-1.158,1.765-4.623,1.379-4.623,1.379L218.572,164.297z"/>
		<g>
			<g>
				<g>
					<g>
						<g>
							<g>
								<g>
									<g>
										<g>
											<g>
												<g>
													<g>
														<g>
															<g>
																<g>
																	<g>
																		<path style="fill:#455A64;" d="M202.924,250.197v9.491l-19.528-0.093c0.142-1.924,10.859-5.764,10.859-5.764
																			l-0.213-3.634H202.924z"/>
																	</g>
																</g>
															</g>
														</g>
													</g>
												</g>
											</g>
										</g>
									</g>
								</g>
							</g>
						</g>
						<g style="opacity:0.6;">
							<g>
								<g>
									<g>
										<g>
											<g>
												<g>
													<g>
														<g>
															<g>
																<g>
																	<g>
																		<g>
																			<path style="fill:#FFFFFF;" d="M199.765,252.973c0.374,0.112,0.628,0.555,0.535,0.948
																				c-0.093,0.393-0.525,0.665-0.901,0.559c-0.376-0.105-0.696-0.627-0.561-1.007c0.135-0.38,0.659-0.67,0.999-0.474
																				"/>
																		</g>
																	</g>
																</g>
															</g>
														</g>
													</g>
												</g>
											</g>
										</g>
									</g>
								</g>
							</g>
						</g>
						<g>
							<g>
								<g>
									<g>
										<g>
											<g>
												<g>
													<g>
														<g>
															<g>
																<g>
																	<g>
																		<path style="fill:#263238;" d="M202.924,259.688v-1.516l-18.644,0.216c0,0-0.972,0.573-0.884,1.207
																			L202.924,259.688z"/>
																	</g>
																</g>
															</g>
														</g>
													</g>
												</g>
											</g>
										</g>
									</g>
								</g>
							</g>
						</g>
						<g>
							<g>
								<g>
									<g>
										<g>
											<g>
												<g>
													<g>
														<g>
															<g>
																<g>
																	<g>
																		<g>
																			<path style="fill:#263238;" d="M194.255,254.015c0.002,0.098,0.475,0.15,0.938,0.474
																				c0.47,0.311,0.705,0.741,0.792,0.703c0.088-0.018-0.045-0.608-0.611-0.99
																				C194.812,253.815,194.236,253.924,194.255,254.015z"/>
																		</g>
																	</g>
																</g>
															</g>
														</g>
													</g>
												</g>
											</g>
										</g>
									</g>
								</g>
							</g>
						</g>
						<g>
							<g>
								<g>
									<g>
										<g>
											<g>
												<g>
													<g>
														<g>
															<g>
																<g>
																	<g>
																		<g>
																			<path style="fill:#263238;" d="M191.697,254.893c-0.023,0.095,0.385,0.268,0.701,0.69
																				c0.328,0.411,0.403,0.863,0.497,0.86c0.089,0.017,0.163-0.559-0.24-1.075
																				C192.258,254.849,191.7,254.799,191.697,254.893z"/>
																		</g>
																	</g>
																</g>
															</g>
														</g>
													</g>
												</g>
											</g>
										</g>
									</g>
								</g>
							</g>
						</g>
						<g>
							<g>
								<g>
									<g>
										<g>
											<g>
												<g>
													<g>
														<g>
															<g>
																<g>
																	<g>
																		<g>
																			<path style="fill:#263238;" d="M190.546,257.312c0.086,0.023,0.225-0.468-0.011-1.01
																				c-0.232-0.545-0.676-0.764-0.717-0.683c-0.055,0.08,0.229,0.374,0.416,0.823
																				C190.431,256.885,190.452,257.301,190.546,257.312z"/>
																		</g>
																	</g>
																</g>
															</g>
														</g>
													</g>
												</g>
											</g>
										</g>
									</g>
								</g>
							</g>
						</g>
						<g>
							<g>
								<g>
									<g>
										<g>
											<g>
												<g>
													<g>
														<g>
															<g>
																<g>
																	<g>
																		<g>
																			<path style="fill:#263238;" d="M194.445,251.316c0.038,0.09,0.476-0.039,1.011,0.007
																				c0.537,0.035,0.951,0.228,1.002,0.144c0.056-0.07-0.346-0.441-0.978-0.486
																				C194.849,250.931,194.4,251.238,194.445,251.316z"/>
																		</g>
																	</g>
																</g>
															</g>
														</g>
													</g>
												</g>
											</g>
										</g>
									</g>
								</g>
							</g>
						</g>
					</g>
				</g>
			</g>
			<g>
				<g>
					<g>
						<g>
							<g>
								<g>
									<path style="fill:#263238;" d="M194.337,254.44c-0.014,0.002-0.064-0.202-0.042-0.58c0.028-0.372,0.144-0.928,0.517-1.496
										c0.189-0.28,0.435-0.56,0.764-0.788c0.159-0.109,0.406-0.228,0.659-0.113c0.237,0.112,0.371,0.372,0.385,0.625
										c-0.025,0.977-0.741,1.878-1.716,2.22c-1.001,0.343-2.059-0.081-2.637-0.768c-0.142-0.175-0.279-0.353-0.35-0.586
										c-0.033-0.114-0.049-0.249-0.003-0.38c0.044-0.129,0.149-0.232,0.266-0.274c0.236-0.079,0.436-0.01,0.609,0.059
										c0.169,0.08,0.315,0.162,0.454,0.254c0.554,0.362,0.908,0.78,1.117,1.083c0.21,0.306,0.283,0.501,0.269,0.508
										c-0.044,0.044-0.404-0.749-1.487-1.416c-0.261-0.147-0.604-0.358-0.88-0.264c-0.121,0.049-0.169,0.188-0.111,0.355
										c0.051,0.164,0.176,0.329,0.307,0.483c0.529,0.607,1.484,0.976,2.361,0.671c0.867-0.286,1.52-1.149,1.546-1.929
										c-0.005-0.181-0.1-0.347-0.23-0.411c-0.125-0.065-0.289-0.01-0.435,0.084c-0.3,0.197-0.542,0.451-0.727,0.705
										c-0.369,0.517-0.51,1.036-0.569,1.391C194.348,254.232,194.36,254.438,194.337,254.44z"/>
								</g>
							</g>
						</g>
					</g>
				</g>
			</g>
		</g>
		<g>
			<g>
				<g>
					<g>
						<g>
							<g>
								<g>
									<g>
										<g>
											<g>
												<polygon style="fill:#455A64;" points="206.523,249.522 206.523,252.975 206.772,259.181 215.02,259.378 
													215.314,252.975 215.072,249.073 												"/>
											</g>
										</g>
									</g>
								</g>
							</g>
						</g>
					</g>
				</g>
			</g>
			<g>
				<g>
					<g>
						<g>
							<g>
								<g>
									<g>
										<g>
											<g>
												<g>
													<path style="fill:#263238;" d="M210.85,258.713c0.05,0.002-0.069-1.896-0.265-4.24
														c-0.197-2.345-0.397-4.247-0.447-4.249c-0.05-0.003,0.069,1.895,0.265,4.24
														C210.6,256.808,210.8,258.711,210.85,258.713z"/>
												</g>
											</g>
										</g>
									</g>
								</g>
							</g>
						</g>
					</g>
				</g>
			</g>
			<g>
				<g>
					<g>
						<g>
							<g>
								<g>
									<g>
										<g>
											<g>
												<polygon style="fill:#263238;" points="206.739,258.147 215.072,258.242 215.072,259.378 206.733,259.368 												
													"/>
											</g>
										</g>
									</g>
								</g>
							</g>
						</g>
					</g>
				</g>
			</g>
			<g>
				<g>
					<g>
						<g>
							<g>
								<g>
									<g>
										<g>
											<g>
												<g>
													<path style="fill:#263238;" d="M215.052,254.58c0.013-0.009-0.058-0.129-0.211-0.327
														c-0.153-0.199-0.396-0.472-0.735-0.771c-0.34-0.298-0.781-0.621-1.332-0.876c-0.546-0.26-1.211-0.443-1.923-0.437
														c-1.427,0.002-2.627,0.686-3.217,1.369c-0.307,0.337-0.496,0.653-0.604,0.879c-0.106,0.228-0.145,0.36-0.131,0.366
														c0.045,0.025,0.244-0.505,0.864-1.126c0.6-0.624,1.738-1.24,3.092-1.243c1.35-0.007,2.461,0.661,3.137,1.201
														C214.681,254.165,215.017,254.608,215.052,254.58z"/>
												</g>
											</g>
										</g>
									</g>
								</g>
							</g>
						</g>
					</g>
				</g>
			</g>
		</g>
		<g>
			
				<rect x="43.29" y="111.547" transform="matrix(0.5726 -0.8199 0.8199 0.5726 -25.4754 179.3751)" style="fill:#E0E0E0;" width="232.007" height="5.146"/>
			<g>
				<path style="fill:#263238;" d="M94.983,210.699c0,0,0.228-0.348,0.678-1.003c0.456-0.661,1.124-1.628,1.999-2.895
					c1.765-2.542,4.358-6.277,7.697-11.087c6.693-9.617,16.374-23.526,28.351-40.735c23.97-34.371,57.126-81.912,93.901-134.642
					l0.064,0.362c-1.329-0.928-2.768-1.933-4.21-2.94l-0.009-0.007l0.362-0.064c-65.405,93.654-120.068,171.77-133.009,190.094
					l-0.013-0.075c1.378,0.979,2.42,1.719,3.127,2.222C94.624,210.432,94.983,210.699,94.983,210.699s-0.353-0.231-1.062-0.714
					c-0.721-0.495-1.783-1.224-3.188-2.188l-0.044-0.03l0.031-0.045c12.747-18.459,67.264-96.677,132.67-190.331l0.149-0.214
					l0.214,0.149l0.009,0.007c1.442,1.007,2.881,2.012,4.21,2.94l0.214,0.149l-0.149,0.213
					c-36.886,52.744-70.143,100.299-94.186,134.68c-12.018,17.149-21.731,31.01-28.446,40.593c-3.351,4.77-5.953,8.474-7.724,10.994
					c-0.879,1.245-1.551,2.196-2.009,2.845C95.218,210.386,94.983,210.699,94.983,210.699z"/>
			</g>
		</g>
		<path style="fill:#263238;" d="M183.736,168.035c0,0.444,1.991,38.949,1.292,43.244c-0.699,4.295,7.002,41.319,7.002,41.319
			l12.144-1.629l-4.443-38.061l3.406-27.842c0,0,4.557-6.812,5.907-10.959c1.35-4.147,0-15.942,0-15.942l-25.307,4.391V168.035z"/>
		<path style="fill:#263238;" d="M217.71,156.096c-0.081,0.016,1.204,10.538,1.737,17.006c0.415,5.025-0.615,39.455-0.615,39.455
			l-1.502,37.143l-12.688-0.651v-33.321l-1.24-32.335l-0.538-7.947l0.904-17.385L217.71,156.096z"/>
		<g>
			<g>
				<g>
					<g>
						<g>
							<g>
								<g>
									<g>
										<g>
											<g>
												<g>
													<g>
														<g>
															<g>
																<g>
																	<g>
																		<g>
																			<g>
																				<g>
																					<g>
																						<path style="fill:#FFBF9D;" d="M202.462,85.961l-0.549,20.275c-0.093,3.448-0.935,8.494-6.379,8.098l0,0
																							c-4.698-0.7-5.773-5.216-5.683-8.434c0.043-1.526,0.076-2.799,0.07-2.956c0,0-5.148-0.625-5.383-5.744
																							c-0.113-2.474,0.068-7.588,0.286-12.212c0.234-4.967,4.249-8.918,9.218-9.085l0.494-0.017
																							C199.873,76.021,202.743,80.628,202.462,85.961z"/>
																					</g>
																				</g>
																			</g>
																		</g>
																	</g>
																</g>
															</g>
														</g>
													</g>
												</g>
											</g>
										</g>
									</g>
								</g>
							</g>
						</g>
					</g>
				</g>
				<g>
					<g>
						<g>
							<g>
								<g>
									<g>
										<g>
											<g>
												<g>
													<g>
														<g>
															<g>
																<g>
																	<g>
																		<g>
																			<g>
																				<g>
																					<g>
																						<path style="fill:#FF9A6C;" d="M189.858,102.944c0,0,3.234,0.081,6.601-2.194c0,0-1.505,3.92-6.63,3.63
																							L189.858,102.944z"/>
																					</g>
																				</g>
																			</g>
																		</g>
																	</g>
																</g>
															</g>
														</g>
													</g>
												</g>
											</g>
										</g>
									</g>
								</g>
							</g>
						</g>
					</g>
				</g>
				<g>
					<g>
						<g>
							<g>
								<g>
									<g>
										<g>
											<g>
												<g>
													<g>
														<g>
															<g>
																<g>
																	<g>
																		<g>
																			<g>
																				<g>
																					<g>
																						<g>
																							<g>
																								<g>
																									<path style="fill:#263238;" d="M191.025,93.284c0.002-0.045-0.49-0.113-1.286-0.188
																										c-0.202-0.014-0.393-0.047-0.432-0.183c-0.052-0.144,0.025-0.363,0.114-0.6
																										c0.173-0.493,0.353-1.009,0.543-1.55c0.753-2.206,1.29-4.017,1.201-4.047
																										c-0.089-0.029-0.771,1.735-1.524,3.941c-0.181,0.544-0.354,1.062-0.518,1.558
																										c-0.068,0.231-0.19,0.494-0.078,0.792c0.059,0.148,0.21,0.252,0.34,0.283
																										c0.13,0.035,0.243,0.033,0.343,0.036C190.529,93.342,191.023,93.329,191.025,93.284z"/>
																								</g>
																							</g>
																						</g>
																					</g>
																				</g>
																			</g>
																		</g>
																	</g>
																</g>
															</g>
														</g>
													</g>
												</g>
											</g>
										</g>
									</g>
								</g>
							</g>
						</g>
					</g>
				</g>
				<g>
					<g>
						<g>
							<g>
								<g>
									<g>
										<g>
											<g>
												<g>
													<g>
														<g>
															<g>
																<g>
																	<g>
																		<g>
																			<g>
																				<g>
																					<path style="fill:#263238;" d="M193.891,84.224c0.075,0.193,0.765,0.077,1.583,0.152
																						c0.819,0.057,1.484,0.282,1.586,0.103c0.045-0.085-0.075-0.265-0.347-0.445
																						c-0.27-0.18-0.695-0.345-1.186-0.385c-0.491-0.039-0.936,0.056-1.228,0.191
																						C194.004,83.974,193.859,84.133,193.891,84.224z"/>
																				</g>
																			</g>
																		</g>
																	</g>
																</g>
															</g>
														</g>
													</g>
												</g>
											</g>
										</g>
									</g>
								</g>
							</g>
						</g>
					</g>
				</g>
				<g>
					<g>
						<g>
							<g>
								<g>
									<g>
										<g>
											<g>
												<g>
													<g>
														<g>
															<g>
																<g>
																	<g>
																		<g>
																			<g>
																				<g>
																					<path style="fill:#263238;" d="M185.711,85.488c0.084,0.158,0.757,0.013,1.567,0.02
																						c0.81-0.008,1.476,0.137,1.568-0.021c0.04-0.076-0.087-0.219-0.364-0.353
																						c-0.274-0.134-0.702-0.244-1.188-0.245c-0.485,0.001-0.919,0.112-1.2,0.246
																						C185.81,85.268,185.675,85.412,185.711,85.488z"/>
																				</g>
																			</g>
																		</g>
																	</g>
																</g>
															</g>
														</g>
													</g>
												</g>
											</g>
										</g>
									</g>
								</g>
							</g>
						</g>
					</g>
				</g>
				<g>
					<g>
						<g>
							<g>
								<g>
									<g>
										<g>
											<g>
												<g>
													<g>
														<g>
															<g>
																<g>
																	<path style="fill:#FFBF9D;" d="M202.108,89.767c0.086-0.041,3.484-1.158,3.489,2.346
																		c0.005,3.505-3.514,2.787-3.52,2.687C202.071,94.699,202.108,89.767,202.108,89.767z"/>
																</g>
															</g>
														</g>
													</g>
												</g>
											</g>
										</g>
									</g>
								</g>
							</g>
						</g>
					</g>
				</g>
				<g>
					<g>
						<g>
							<g>
								<g>
									<g>
										<g>
											<g>
												<g>
													<g>
														<g>
															<g>
																<g>
																	<g>
																		<path style="fill:#FF9A6C;" d="M203.145,93.47c0.016-0.011,0.061,0.043,0.165,0.09
																			c0.101,0.046,0.274,0.077,0.456,0.009c0.37-0.137,0.681-0.725,0.697-1.356c0.008-0.319-0.059-0.622-0.172-0.874
																			c-0.107-0.256-0.273-0.435-0.46-0.468c-0.185-0.043-0.317,0.069-0.36,0.168c-0.047,0.098-0.025,0.168-0.043,0.174
																			c-0.01,0.009-0.075-0.059-0.047-0.203c0.014-0.069,0.055-0.152,0.137-0.22c0.084-0.069,0.208-0.104,0.337-0.09
																			c0.27,0.018,0.514,0.266,0.639,0.542c0.139,0.277,0.223,0.618,0.213,0.977c-0.021,0.706-0.382,1.368-0.888,1.515
																			c-0.247,0.065-0.452-0.009-0.559-0.092C203.152,93.555,203.133,93.476,203.145,93.47z"/>
																	</g>
																</g>
															</g>
														</g>
													</g>
												</g>
											</g>
										</g>
									</g>
								</g>
							</g>
						</g>
					</g>
				</g>
				<g>
					<g>
						<g>
							<g>
								<g>
									<path style="fill:#263238;" d="M180.584,81.632c-0.305,0.119-0.554,0.407-0.595,0.738c-0.06,0.485,0.283,0.971,0.744,1.133
										c0.461,0.162,0.998,0.023,1.366-0.297c-0.171,0.116-0.323,0.258-0.451,0.419c-0.647,0.813,0.458,1.908,1.264,1.252
										c0.005-0.004,0.009-0.008,0.014-0.012c0.148,0.277,0.257,0.555,0.372,0.833l0,0.007l0.025,0.053
										c0.072,0.173,0.147,0.346,0.24,0.519l0.001-0.011l1.118,2.349c0.132-1.434,0.092-3.469,0.224-4.902
										c2.22-0.008,4.261-0.823,5.813-2.411c0.819-0.838,1.479-1.902,2.548-2.38c1.379-0.616,2.973-0.065,4.379,0.486
										l-0.058-0.057c0.728,0.372,1.384,0.886,1.92,1.504c-0.433,2.815-0.252,5.723,0.529,8.462
										c0.118,0.413,0.449,1.266,0.843,1.437c0.774,0.335,1.017-0.457,1.507-0.863c0.36-0.299,0.879-0.319,1.443-0.295
										c0.366-0.859,1.394-2.93,1.731-4.206l-0.091-0.607l-0.108-1.398c-0.68-1.263,0.239-1.898-0.105-3.29
										c-0.344-1.393-0.565-2.273-1.896-2.808l0,0c-1.193-0.535-2.556-1.106-3.585-0.304c-0.175-1.828-1.712-3.331-3.469-3.867
										c-1.757-0.536-4.108-0.016-5.838,0.602c-1.337,0.478-2.185,1.13-3.795,2.664c-0.678,0.646-2.413,2.916-2.977,3.664
										L180.584,81.632z"/>
								</g>
							</g>
						</g>
					</g>
				</g>
				<g style="opacity:0.3;">
					<path d="M205.176,86.524c0,0-3.322-2.969-9.698-3.759c-6.376-0.791-13.139-0.688-14.501-1.334l1.639-0.836l19.716,2.381
						l3.404,1.912L205.176,86.524z"/>
				</g>
				<g>
					<g>
						<g>
							<g>
								<g>
									<g>
										<path style="fill:#FF725E;" d="M198.21,71.368c0.239,0.051,5.988,1.79,7.137,6.247c1.149,4.457,0.625,5.763,0.625,5.763
											s0.324,0.23,0.572,0.568c0.223,0.303-0.231,1.649-0.982,1.44c-5.526-2.935-12.263-3.674-19.806-3.98l-5.758-0.485
											c-1.644-0.326,1.27-1.532,1.98-1.888c0.544-0.273,2.994-1.222,2.994-1.222l0,0c0.517-0.869,1.554-1.924,2.585-2.896
											c0,0-0.454-0.731,0.155-1.071C188.321,73.503,193.491,70.363,198.21,71.368z"/>
									</g>
								</g>
							</g>
						</g>
					</g>
					<g>
						<g>
							<g>
								<g>
									<g>
										<g>
											<path style="fill:#263238;" d="M184.747,77.794c0,0,0.077,0.009,0.225,0.018c0.176,0.009,0.388,0.019,0.644,0.032
												c0.56,0.016,1.368,0.081,2.364,0.174c1.989,0.21,4.729,0.652,7.662,1.509c2.939,0.837,5.518,1.854,7.368,2.616
												c0.927,0.379,1.67,0.702,2.186,0.921c0.236,0.1,0.432,0.183,0.594,0.252c0.136,0.057,0.21,0.082,0.21,0.082
												s-0.068-0.037-0.202-0.1c-0.16-0.073-0.353-0.162-0.586-0.269c-0.511-0.23-1.251-0.562-2.174-0.95
												c-1.845-0.779-4.423-1.808-7.368-2.646c-2.939-0.858-5.688-1.291-7.682-1.484
												C185.989,77.769,184.747,77.794,184.747,77.794z"/>
										</g>
									</g>
								</g>
							</g>
						</g>
					</g>
					<g style="opacity:0.3;">
						<g>
							<g>
								<g>
									<g>
										<g>
											<path d="M203.362,74.317c0,0-6.224-1.469-9.141-0.315c0.113-0.047,0.226-0.094,0.339-0.141
												c-0.916,0.327-1.533,1.011-2.449,1.339c-0.464,0.165-0.776,0.168-1.195-0.091c0,0,2.537-1.458,3.691-1.901
												C197.211,72.207,200.9,72.26,203.362,74.317z"/>
										</g>
									</g>
								</g>
							</g>
						</g>
					</g>
					<g>
						<g>
							<g>
								<g>
									<g>
										<g>
											<path style="fill:#263238;" d="M203.451,74.356c0,0-0.175-0.167-0.536-0.41c-0.359-0.243-0.904-0.57-1.633-0.845
												c-0.725-0.281-1.634-0.508-2.66-0.582c-1.02-0.075-2.179-0.016-3.299,0.402c-0.56,0.201-1.079,0.46-1.576,0.711
												c-0.493,0.26-0.98,0.485-1.425,0.746c-0.441,0.261-0.848,0.528-1.271,0.686c-0.419,0.177-0.844,0.177-1.229,0.157
												c-1.543-0.091-2.466-0.48-2.39-0.573c0-0.004,0.014,0.068,0.114,0.131c0.098,0.06,0.253,0.133,0.462,0.194
												c0.416,0.126,1.034,0.261,1.81,0.316c0.383,0.026,0.831,0.028,1.261-0.15c0.434-0.158,0.848-0.427,1.288-0.684
												c0.439-0.256,0.93-0.481,1.423-0.739c0.497-0.249,1.013-0.507,1.566-0.705c1.104-0.412,2.246-0.474,3.26-0.404
												c1.018,0.069,1.92,0.287,2.642,0.557c0.726,0.265,1.272,0.58,1.636,0.812c0.182,0.117,0.32,0.213,0.412,0.282
												C203.399,74.325,203.451,74.356,203.451,74.356z"/>
										</g>
									</g>
								</g>
							</g>
						</g>
					</g>
					<g style="opacity:0.3;">
						<path d="M205.765,79.472l-0.03-0.203c-0.999-0.33-1.826-0.477-3.02-0.706c-1.203-0.231-2.361-0.496-3.518-0.898
							c-0.879-0.305-1.923-0.597-2.46-1.286c-0.118,0.462-0.008,0.896,0.311,1.25c0.32,0.354,1.404,0.825,1.854,0.983
							c2.565,0.899,4.342,1.507,7.043,1.89C205.941,80.22,205.765,79.472,205.765,79.472z"/>
					</g>
					<g>
						<g>
							<g>
								<g>
									<g>
										<path style="fill:#FF725E;" d="M205.146,76.98c0.693,0.361,1.201,0.626,1.147,1.359c-0.038,0.507-0.052,0.877-0.558,0.93
											c-0.154,0.016-0.308-0.026-0.458-0.067c-2.56-0.709-5.234-1.174-7.795-1.883c-0.26-0.072-0.541-0.159-0.692-0.382
											c-0.232-0.343,0.049-1.119,0.408-1.327c0.359-0.208,0.863-0.145,1.277-0.123c2.353,0.125,4.375,0.72,6.61,1.464"/>
									</g>
								</g>
							</g>
						</g>
					</g>
					<g>
						<g>
							<g>
								<g>
									<g>
										<g>
											<path style="fill:#263238;" d="M196.902,77.06c0.013-0.008-0.13-0.096-0.185-0.355c-0.053-0.243,0.01-0.683,0.39-0.961
												c0.388-0.258,0.979-0.311,1.592-0.235c0.623,0.076,1.308,0.168,2.021,0.29c1.43,0.238,2.7,0.577,3.591,0.905
												c0.447,0.159,0.8,0.31,1.044,0.415c0.1,0.045,0.192,0.086,0.279,0.125c0.064,0.028,0.099,0.041,0.1,0.038
												c0.002-0.003-0.03-0.022-0.092-0.055c-0.085-0.044-0.175-0.091-0.272-0.141c-0.24-0.116-0.59-0.278-1.036-0.446
												c-0.888-0.346-2.164-0.697-3.598-0.936c-0.716-0.122-1.402-0.212-2.028-0.284c-0.624-0.071-1.231-0.015-1.642,0.268
												c-0.403,0.308-0.453,0.771-0.387,1.025c0.033,0.133,0.094,0.223,0.14,0.276C196.87,77.04,196.901,77.062,196.902,77.06z"
												/>
										</g>
									</g>
								</g>
							</g>
						</g>
					</g>
					<g>
						<g>
							<g>
								<g>
									<g>
										<polygon style="fill:#FFFFFF;" points="186.958,75.816 191.288,76.18 191.201,77.407 185.878,76.915 										"/>
									</g>
								</g>
							</g>
						</g>
					</g>
				</g>
			</g>
			<g>
				<g>
					<g>
						<g>
							<g>
								<g>
									<g>
										<g>
											<g>
												<g>
													<g>
														<g>
															<g>
																<g>
																	<g>
																		<g>
																			<g>
																				<g>
																					<g>
																						<path style="fill:#263238;" d="M185.808,87.627c0.094,0.094,0.644-0.334,1.44-0.35
																							c0.795-0.028,1.389,0.368,1.472,0.268c0.042-0.044-0.056-0.216-0.315-0.395
																							c-0.255-0.179-0.686-0.348-1.182-0.334c-0.496,0.014-0.908,0.207-1.144,0.399
																							C185.84,87.408,185.762,87.584,185.808,87.627z"/>
																					</g>
																				</g>
																			</g>
																		</g>
																	</g>
																</g>
															</g>
														</g>
													</g>
												</g>
											</g>
										</g>
									</g>
								</g>
							</g>
						</g>
						<g>
							<g>
								<g>
									<g>
										<g>
											<g>
												<g>
													<g>
														<g>
															<g>
																<g>
																	<g>
																		<g>
																			<g>
																				<g>
																					<path style="fill:#263238;" d="M193.887,90.005c-0.004,0.346,0.286,0.635,0.647,0.646
																						c0.361,0.011,0.657-0.26,0.661-0.606c0.004-0.346-0.286-0.635-0.647-0.646
																						C194.187,89.387,193.891,89.658,193.887,90.005z"/>
																				</g>
																			</g>
																		</g>
																	</g>
																</g>
															</g>
														</g>
													</g>
												</g>
											</g>
										</g>
									</g>
								</g>
							</g>
						</g>
						<g>
							<g>
								<g>
									<g>
										<g>
											<g>
												<g>
													<g>
														<g>
															<g>
																<g>
																	<g>
																		<g>
																			<g>
																				<g>
																					<path style="fill:#263238;" d="M187.013,90.005c-0.004,0.346,0.286,0.635,0.647,0.646
																						c0.361,0.011,0.657-0.26,0.661-0.606c0.004-0.346-0.286-0.635-0.647-0.646
																						C187.314,89.387,187.017,89.658,187.013,90.005z"/>
																				</g>
																			</g>
																		</g>
																	</g>
																</g>
															</g>
														</g>
													</g>
												</g>
											</g>
										</g>
									</g>
								</g>
							</g>
						</g>
						<g>
							<g>
								<g>
									<g>
										<g>
											<g>
												<g>
													<g>
														<g>
															<g>
																<g>
																	<g>
																		<g>
																			<g>
																				<g>
																					<g>
																						<path style="fill:#263238;" d="M193.419,87.336c0.094,0.094,0.645-0.333,1.441-0.35
																							c0.795-0.028,1.388,0.368,1.472,0.268c0.041-0.044-0.055-0.216-0.315-0.395
																							c-0.255-0.179-0.686-0.348-1.182-0.334c-0.496,0.014-0.908,0.207-1.144,0.399
																							C193.453,87.118,193.373,87.294,193.419,87.336z"/>
																					</g>
																				</g>
																			</g>
																		</g>
																	</g>
																</g>
															</g>
														</g>
													</g>
												</g>
											</g>
										</g>
									</g>
								</g>
							</g>
						</g>
						<g>
							<g>
								<g>
									<g>
										<g>
											<g>
												<g>
													<g>
														<g>
															<g>
																<g>
																	<g>
																		<g>
																			<g>
																				<g>
																					<path style="fill:#263238;" d="M190.937,93.297c0.003-0.045-0.494-0.119-1.298-0.203
																						c-0.204-0.016-0.397-0.052-0.435-0.19c-0.051-0.146,0.029-0.367,0.121-0.605
																						c0.179-0.496,0.367-1.017,0.565-1.562c0.783-2.223,1.344-4.049,1.254-4.08c-0.09-0.031-0.797,1.746-1.58,3.969
																						c-0.188,0.548-0.368,1.071-0.539,1.57c-0.071,0.233-0.198,0.498-0.087,0.8c0.058,0.151,0.21,0.257,0.341,0.289
																						c0.131,0.037,0.246,0.036,0.346,0.04C190.434,93.35,190.935,93.342,190.937,93.297z"/>
																				</g>
																			</g>
																		</g>
																	</g>
																</g>
															</g>
														</g>
													</g>
												</g>
											</g>
										</g>
									</g>
								</g>
							</g>
						</g>
						<g>
							<g>
								<g>
									<g>
										<g>
											<g>
												<g>
													<g>
														<g>
															<g>
																<g>
																	<g>
																		<g>
																			<g>
																				<g>
																					<path style="fill:#263238;" d="M193.292,93.792c-0.13-0.005-0.111,0.859-0.836,1.49
																						c-0.724,0.632-1.647,0.557-1.651,0.678c-0.011,0.055,0.209,0.163,0.598,0.165
																						c0.381,0.004,0.935-0.132,1.379-0.517c0.442-0.387,0.624-0.893,0.645-1.248
																						C193.453,93.997,193.351,93.785,193.292,93.792z"/>
																				</g>
																			</g>
																		</g>
																	</g>
																</g>
															</g>
														</g>
													</g>
												</g>
											</g>
										</g>
									</g>
								</g>
							</g>
						</g>
					</g>
				</g>
			</g>
		</g>
		<path style="fill:#FFBF9D;" d="M167.999,104.83l-3.74,11.842l10.619-4.974l0.278,13.152c0,0-9.449,4.725-13.499,4.274
			c-4.049-0.45-7.424-3.937-6.637-8.999c0.787-5.062,6.52-16.183,6.52-16.183L167.999,104.83z"/>
		<path style="fill:#455A64;" d="M170.137,94.098c0,0-2.683-1.99-3.746-0.365l-0.705,1.311c0,0-1.516-0.072-2.028,1.625
			c0,0-1.472,0.222-1.825,1.729c0,0-1.189,1.197-1.318,2.473c-0.129,1.276,0.499,2.956,0.499,2.956l-1.374,3.933
			c0,0,2.2-4.174,6.341-1.946c2.025,1.089-0.034,5.172-0.034,5.172s0.303,0.146,1.303-0.414c1-0.56,1.607-1.326,1.802-3.552
			c0.195-2.225,0.745-3.175,0.745-3.175l3.794-2.8c0,0,1.064-1.69,1.064-2.655c0-0.391-0.196-1.489-0.196-1.489l-3.047,1.816
			c0,0-2.311-1.281-2.261-2.461C169.2,95.074,170.137,94.098,170.137,94.098z"/>
		<path style="fill:#FF725E;" d="M181.891,109.073c1.508-1.068,6.095-2.828,6.095-2.828l14.017-1.766l6.078,1.917
			c2.715,0.856,4.886,2.896,5.938,5.541c0.551,1.386,1.15,3.029,1.688,4.805c1.001,3.305,1.418,6.763,1.279,10.214l-0.679,16.853
			l2.773,14.653l-36.174,6.19l-2.234-39.769L181.891,109.073z"/>
		<polygon style="fill:#E0E0E0;" points="181.137,134.859 216.731,130.86 216.573,137.217 181.326,140.589 		"/>
		<polygon style="fill:#E0E0E0;" points="181.671,144.701 216.408,141.292 216.376,144.029 216.972,146.555 181.88,150.609 		"/>
		<path style="opacity:0.3;" d="M185.705,163.555c0,0,9.057-9.077,13.082-16.605c4.025-7.528,12.74-28.531,9.319-40.546
			l-2.297-0.725c0,0,1.557,12.071-1.884,21.294c-3.442,9.223-18.22,31.191-18.22,31.191l-2.787,7.774L185.705,163.555z"/>
		<path style="fill:#455A64;" d="M203.116,104.83c2.402,8.143,0.82,16.891-2.658,25.927c-4.139,9.802-10.641,19.063-18.147,28.095
			l0.594,5.801c0,0,4.09-4.257,11.775-15.414c4.059-5.893,7.111-10.066,9.126-15.156c1.012-2.557,2.259-6.233,2.587-7.622
			c3.148-13.323,1.712-20.057,1.712-20.057L203.116,104.83z"/>
		<g>
			<path style="fill:#E0E0E0;" d="M168.516,114.47c-0.182-1.814,1.432,14.304,1.465,14.654l10.679-3.921
				c3.406-1.251,6.172-3.929,7.262-7.39c0.341-1.083,0.515-2.218,0.375-3.32c-0.562-4.408-2.408-6.471-5.985-5.719
				C178.892,109.494,168.516,114.47,168.516,114.47z"/>
			<g>
				<path style="fill:#263238;" d="M168.516,114.47c0.011-0.018,0.178-0.129,0.575-0.331c0.436-0.218,1-0.498,1.698-0.846
					c1.484-0.715,3.637-1.739,6.353-2.889c1.363-0.564,2.849-1.194,4.533-1.69c0.843-0.244,1.778-0.399,2.742-0.257
					c0.969,0.117,1.911,0.67,2.546,1.477c0.627,0.814,1.006,1.794,1.261,2.798c0.228,1.003,0.451,2.059,0.349,3.167
					c-0.208,2.18-1.188,4.306-2.691,6.041c-1.09,1.245-2.413,2.235-3.831,2.943c-1.447,0.683-2.885,1.11-4.264,1.641
					c-2.763,1.003-5.36,1.946-7.73,2.806l-0.268,0.097l-0.026-0.282c-0.407-4.457-0.747-8.175-0.992-10.85
					c-0.101-1.261-0.182-2.273-0.243-3.031c-0.019-0.316-0.034-0.578-0.047-0.799c-0.001-0.042-0.002-0.081-0.004-0.119
					c0.097-0.031,0.027,0.046,0.048,0.053L168.516,114.47c0,0-0.011-0.011-0.024-0.067c0.019-0.014-0.064-0.073,0.037-0.063
					c0.006,0.038,0.013,0.077,0.02,0.118c0.031,0.219,0.068,0.479,0.112,0.792c0.091,0.755,0.212,1.763,0.362,3.019
					c0.29,2.67,0.693,6.383,1.176,10.833l-0.294-0.185c2.364-0.878,4.954-1.84,7.71-2.863c1.365-0.532,2.844-0.985,4.206-1.634
					c1.359-0.682,2.626-1.634,3.668-2.824c1.435-1.652,2.375-3.698,2.575-5.742c0.1-1.011-0.107-2.028-0.324-3.003
					c-0.239-0.965-0.596-1.885-1.156-2.621c-0.57-0.725-1.369-1.206-2.239-1.321c-0.865-0.137-1.743-0.007-2.558,0.221
					c-1.643,0.465-3.143,1.075-4.506,1.614c-2.725,1.103-4.9,2.075-6.408,2.732c-0.715,0.311-1.291,0.563-1.738,0.757
					C168.748,114.402,168.505,114.489,168.516,114.47z"/>
			</g>
		</g>
		<path style="fill:#455A64;" d="M183.588,107.837c0,0,4.758-1.036,10.788,8.985c5.865,9.746,24.034,36.345,24.034,36.345
			c-0.556-2.682-1.091-5.164-1.581-7.217c0,0-18.878-30.11-20.705-33.551c-2.973-5.598-8.138-6.154-8.138-6.154L183.588,107.837z"/>
		<path style="fill:#455A64;" d="M182.892,161.141c-1.291-0.174-2.503,0.843-2.995,2.049c-0.492,1.206-0.433,2.556-0.366,3.857
			c0.122,2.359,0.243,4.719,0.365,7.078c0.039,0.766,0.082,1.547,0.364,2.26c0.282,0.713,0.85,1.358,1.598,1.525
			c1.085,0.242,2.172-0.615,2.581-1.649c0.409-1.034,0.31-2.19,0.205-3.297c-0.354-3.728-0.708-7.455-1.062-11.182"/>
		<g>
			<path style="fill:#FF9A6C;" d="M165.144,116.102c0.04,0.15-1.348,0.49-2.56,1.661c-1.237,1.146-1.652,2.513-1.8,2.465
				c-0.137,0.002,0.082-1.571,1.442-2.843C163.57,116.097,165.154,115.965,165.144,116.102z"/>
		</g>
		<g>
			<path style="fill:#263238;" d="M167.697,100.103c0,0.158-1.717,0.066-3.529,0.989c-1.83,0.888-2.793,2.312-2.919,2.216
				c-0.054-0.033,0.109-0.44,0.548-0.989c0.434-0.548,1.174-1.212,2.14-1.694c0.967-0.479,1.943-0.667,2.642-0.683
				C167.28,99.925,167.703,100.04,167.697,100.103z"/>
		</g>
		<g>
			<path style="fill:#455A64;" d="M209.641,165.939c0.065-0.005,0.253,1.18,0.389,3.12c0.106,1.924,0.214,4.688-0.74,7.571
				c-0.484,1.428-1.237,2.693-2.065,3.69c-0.822,1.005-1.646,1.815-2.304,2.52c-1.339,1.389-1.988,2.389-2.055,2.35
				c-0.06-0.029,0.495-1.126,1.781-2.596c1.24-1.479,3.249-3.346,4.15-6.133c0.917-2.762,0.878-5.473,0.865-7.388
				C209.621,167.144,209.562,165.944,209.641,165.939z"/>
		</g>
		<g>
			<path style="fill:#455A64;" d="M191.196,170.998c0.036-0.004,0.143,0.629,0.335,1.773c0.197,1.142,0.464,2.801,0.913,4.818
				c0.238,0.997,0.49,2.128,0.997,3.176c0.54,1.003,1.884,1.43,3.182,1.466c1.325,0.05,2.74-0.269,4.027-0.921
				c0.317-0.173,0.629-0.359,0.921-0.579c0.166-0.095,0.245-0.243,0.374-0.359c0.129-0.111,0.224-0.262,0.309-0.425
				c0.391-0.606,0.581-1.366,0.774-2.109c0.681-3.534,0.533-7.027,0.352-10.005l0.29,0.205c-3.648,0.914-6.736,1.656-8.935,2.176
				c-1.048,0.243-1.907,0.441-2.578,0.597C191.553,170.946,191.217,171.012,191.196,170.998c-0.021-0.014,0.273-0.109,0.844-0.276
				c0.651-0.184,1.483-0.419,2.5-0.706c2.165-0.6,5.285-1.451,9.014-2.429l0.268-0.07l0.023,0.276
				c0.127,1.515,0.201,3.134,0.184,4.841c-0.025,1.704-0.116,3.497-0.493,5.319c-0.204,0.78-0.396,1.569-0.842,2.269
				c-0.096,0.181-0.206,0.354-0.366,0.499c-0.151,0.142-0.282,0.331-0.451,0.426c-0.317,0.236-0.652,0.435-0.992,0.618
				c-1.378,0.689-2.865,1.013-4.281,0.948c-0.707-0.033-1.401-0.157-2.034-0.427c-0.629-0.266-1.2-0.715-1.51-1.316
				c-0.538-1.161-0.754-2.282-0.976-3.302c-0.407-2.045-0.618-3.714-0.754-4.868c-0.065-0.578-0.108-1.027-0.129-1.332
				C191.178,171.17,191.18,170.986,191.196,170.998z"/>
		</g>
		
			<rect x="183.409" y="164.079" transform="matrix(0.9954 -0.0962 0.0962 0.9954 -15.0801 20.1453)" style="fill:#FF725E;" width="35.753" height="4.626"/>
	</g>
	<path style="fill:#455A64;" d="M174.263,87.658c-0.321-0.541-1.159-0.604-1.653-0.215c-0.494,0.389-0.658,1.092-0.546,1.71
		c0.113,0.619,0.46,1.169,0.839,1.671c0.174,0.231,0.36,0.459,0.601,0.618c0.241,0.16,0.546,0.243,0.823,0.161
		c0.274-0.082,0.484-0.316,0.594-0.581c0.11-0.264,0.132-0.556,0.131-0.843c-0.005-0.968-0.269-1.934-0.758-2.77"/>
	<path style="fill:#455A64;" d="M175.602,85.542c-0.321-0.541-1.159-0.604-1.653-0.215c-0.494,0.389-0.659,1.092-0.546,1.71
		c0.113,0.619,0.46,1.169,0.839,1.671c0.174,0.23,0.36,0.458,0.601,0.618c0.241,0.159,0.546,0.243,0.823,0.161
		c0.274-0.081,0.484-0.316,0.594-0.58c0.11-0.264,0.132-0.556,0.131-0.843c-0.005-0.968-0.269-1.934-0.758-2.77"/>
	<path style="fill:#455A64;" d="M176.887,83.308c-0.321-0.541-1.159-0.604-1.653-0.215c-0.494,0.389-0.658,1.092-0.546,1.71
		c0.113,0.619,0.46,1.169,0.839,1.671c0.174,0.23,0.36,0.458,0.601,0.618c0.241,0.159,0.546,0.243,0.823,0.161
		c0.274-0.081,0.484-0.316,0.594-0.58c0.11-0.264,0.132-0.556,0.131-0.843C177.671,84.862,177.376,84.144,176.887,83.308"/>
	<path style="fill:#455A64;" d="M176.391,105.518c0,0-2.142-6.849-2.235-8.19c-0.053-0.767,7.898-11.303,7.898-11.303
		s-0.233,3.797-0.35,6.222l-0.233,2.07l2.738,4.437L176.391,105.518z"/>
	<g>
		<path style="fill:#263238;" d="M179.885,93.119c0.071,0.138-1.177,0.843-2.372,2.099c-1.209,1.242-1.866,2.517-2.007,2.451
			c-0.127-0.04,0.349-1.49,1.631-2.812C178.409,93.524,179.839,92.993,179.885,93.119z"/>
	</g>
	<g>
		<path style="fill:none;stroke:#4E585D;stroke-width:0.05;stroke-miterlimit:10;" d="M167.246,226.492"/>
	</g>
</g>
<g id="Scaffold">
	<g>
		<rect x="15.426" y="258.352" style="fill:#FF725E;" width="469.147" height="6.828"/>
		<g>
			<polygon style="fill:#E0E0E0;" points="247.073,270.747 250.526,274.825 78.699,429.382 75.246,425.305 			"/>
			<g>
				<path style="fill:#263238;" d="M247.073,270.747c0,0-0.3,0.286-0.884,0.82c-0.592,0.538-1.458,1.326-2.593,2.357
					c-2.286,2.068-5.645,5.105-9.97,9.018c-8.664,7.818-21.195,19.126-36.7,33.118c-31.014,27.934-73.915,66.574-121.505,109.438
					l0.025-0.362c1.088,1.285,2.265,2.675,3.446,4.069l0.007,0.009l-0.373-0.025c84.492-76,155.103-139.395,171.965-154.404
					l-0.005,0.076c-1.13-1.356-1.979-2.376-2.554-3.065C247.36,271.107,247.073,270.747,247.073,270.747s0.29,0.322,0.872,0.994
					c0.59,0.686,1.463,1.7,2.623,3.048l0.034,0.04l-0.039,0.036c-16.704,15.184-87.197,78.71-171.689,154.71l-0.2,0.18l-0.173-0.205
					l-0.007-0.009c-1.18-1.394-2.357-2.784-3.446-4.069l-0.163-0.193l0.188-0.169c47.704-42.853,90.708-81.484,121.796-109.41
					c15.53-13.924,28.082-25.178,36.759-32.958c4.327-3.871,7.687-6.876,9.974-8.922c1.134-1.009,1.999-1.779,2.591-2.306
					C246.775,270.998,247.073,270.747,247.073,270.747z"/>
			</g>
		</g>
		<g>
			<polygon style="fill:#E0E0E0;" points="251.552,424.341 247.908,428.25 74.219,275.788 77.863,271.879 			"/>
			<g>
				<path style="fill:#263238;" d="M251.552,424.341c0,0-0.32-0.264-0.919-0.782c-0.604-0.524-1.488-1.292-2.645-2.298
					c-2.322-2.027-5.734-5.005-10.128-8.841c-8.783-7.685-21.486-18.799-37.204-32.551
					c-31.386-27.514-74.803-65.574-122.965-107.794l0.362-0.018c-1.148,1.232-2.39,2.564-3.636,3.9l-0.008,0.008l-0.019-0.373
					c85.408,74.97,156.665,137.636,173.553,152.617l-0.076,0.004c1.213-1.281,2.126-2.245,2.744-2.897
					C251.229,424.669,251.552,424.341,251.552,424.341s-0.286,0.326-0.885,0.982c-0.612,0.667-1.516,1.653-2.719,2.963l-0.036,0.039
					l-0.04-0.035c-17.043-14.803-88.417-77.337-173.825-152.307l-0.202-0.177l0.183-0.196l0.008-0.008
					c1.245-1.336,2.488-2.668,3.636-3.9l0.172-0.185l0.19,0.167c48.165,42.335,91.584,80.498,122.972,108.086
					c15.654,13.785,28.305,24.926,37.052,32.629c4.353,3.842,7.732,6.825,10.032,8.856c1.135,1.007,2.002,1.776,2.594,2.302
					C251.267,424.075,251.552,424.341,251.552,424.341z"/>
			</g>
		</g>
		<g>
			<polygon style="fill:#E0E0E0;" points="424.079,270.747 427.532,274.825 255.705,429.382 252.252,425.305 			"/>
			<g>
				<path style="fill:#263238;" d="M424.079,270.747c0,0-0.3,0.286-0.884,0.82c-0.592,0.538-1.458,1.326-2.593,2.357
					c-2.286,2.068-5.645,5.105-9.97,9.018c-8.664,7.818-21.195,19.126-36.7,33.118c-31.014,27.934-73.915,66.574-121.505,109.438
					l0.025-0.362c1.088,1.285,2.265,2.675,3.446,4.069l0.007,0.009l-0.373-0.025c84.492-76,155.103-139.395,171.964-154.404
					l-0.005,0.076c-1.13-1.356-1.979-2.376-2.554-3.065C424.367,271.107,424.079,270.747,424.079,270.747s0.29,0.322,0.872,0.994
					c0.59,0.686,1.463,1.7,2.623,3.048l0.034,0.04l-0.04,0.036c-16.704,15.184-87.197,78.71-171.689,154.71l-0.2,0.18l-0.173-0.205
					l-0.007-0.009c-1.18-1.394-2.357-2.784-3.446-4.069l-0.163-0.193l0.188-0.169c47.704-42.853,90.708-81.484,121.796-109.41
					c15.53-13.924,28.082-25.178,36.759-32.958c4.327-3.871,7.687-6.876,9.974-8.922c1.134-1.009,2-1.779,2.591-2.306
					C423.781,270.998,424.079,270.747,424.079,270.747z"/>
			</g>
		</g>
		<g>
			<polygon style="fill:#E0E0E0;" points="428.559,424.341 424.915,428.25 251.226,275.788 254.87,271.879 			"/>
			<g>
				<path style="fill:#263238;" d="M428.559,424.341c0,0-0.32-0.264-0.918-0.782c-0.604-0.524-1.488-1.292-2.645-2.298
					c-2.322-2.027-5.734-5.005-10.128-8.841c-8.783-7.685-21.486-18.799-37.204-32.551
					c-31.386-27.514-74.803-65.574-122.965-107.794l0.362-0.018c-1.148,1.232-2.39,2.564-3.636,3.9l-0.008,0.008l-0.019-0.373
					c85.408,74.97,156.665,137.636,173.553,152.617l-0.076,0.004c1.213-1.281,2.126-2.245,2.744-2.897
					C428.235,424.669,428.559,424.341,428.559,424.341s-0.286,0.326-0.885,0.982c-0.612,0.667-1.517,1.653-2.719,2.963l-0.036,0.039
					l-0.04-0.035c-17.043-14.803-88.417-77.337-173.825-152.307l-0.202-0.177l0.183-0.196l0.008-0.008
					c1.245-1.336,2.488-2.668,3.636-3.9l0.172-0.185l0.19,0.167c48.165,42.335,91.584,80.498,122.972,108.086
					c15.654,13.785,28.305,24.926,37.052,32.629c4.353,3.842,7.732,6.825,10.032,8.856c1.135,1.007,2.002,1.776,2.594,2.302
					C428.274,424.075,428.559,424.341,428.559,424.341z"/>
			</g>
		</g>
		<g>
			<rect x="16.492" y="269.134" style="fill:#E0E0E0;" width="468.081" height="5.491"/>
			<g>
				<path style="fill:#263238;" d="M484.574,274.625c-0.001-0.202-0.006-1.138-0.03-5.491l0.03,0.03
					c-25.146,0.012-225.234,0.111-468.059,0.23h-0.023l0.26-0.26c0,1.882,0,3.759,0,5.491l-0.26-0.26
					C275.575,274.509,481.718,274.624,484.574,274.625c-2.854,0.002-208.999,0.116-468.081,0.26l-0.26,0v-0.261
					c0-1.732,0-3.609,0-5.491v-0.26h0.26h0.023c242.824,0.119,442.913,0.218,468.059,0.23h0.031l0,0.031
					C484.58,273.487,484.575,274.423,484.574,274.625z"/>
			</g>
		</g>
		<g>
			<rect x="71.548" y="54.969" style="fill:#E0E0E0;" width="5.343" height="426.646"/>
			<g>
				<path style="fill:#263238;" d="M76.891,481.615c-0.002-2.854-0.116-190.535-0.26-426.645l0.26,0.26c-1.679,0-3.5,0-5.323,0
					h-0.021l0.26-0.26c0,220.456-0.1,402.289-0.228,426.645l-0.032-0.032C75.707,481.608,76.676,481.614,76.891,481.615
					c-0.215,0.001-1.185,0.007-5.343,0.032l-0.032,0l0-0.033c-0.129-24.356-0.228-206.19-0.228-426.645v-0.261h0.26h0.021
					c1.823,0,3.644,0,5.323,0h0.261l0,0.26C77.007,291.08,76.893,478.763,76.891,481.615z"/>
			</g>
		</g>
		<g>
			<rect x="248.933" y="54.969" style="fill:#E0E0E0;" width="5.343" height="426.646"/>
			<g>
				<path style="fill:#263238;" d="M254.277,481.615c-0.002-2.854-0.116-190.535-0.26-426.645l0.26,0.26c-1.679,0-3.499,0-5.323,0
					h-0.021l0.26-0.26c0,220.456-0.099,402.289-0.228,426.645l-0.032-0.032C253.092,481.608,254.061,481.614,254.277,481.615
					c-0.215,0.001-1.184,0.007-5.343,0.032l-0.032,0l0-0.033c-0.129-24.356-0.228-206.19-0.228-426.645v-0.261h0.26h0.021
					c1.823,0,3.644,0,5.323,0h0.261l0,0.26C254.393,291.08,254.279,478.763,254.277,481.615z"/>
			</g>
		</g>
		<g>
			<rect x="426.319" y="54.969" style="fill:#E0E0E0;" width="5.343" height="426.646"/>
			<g>
				<path style="fill:#263238;" d="M431.663,481.615c-0.002-2.854-0.116-190.535-0.26-426.645l0.26,0.26c-1.679,0-3.499,0-5.323,0
					h-0.021l0.26-0.26c0,220.456-0.099,402.289-0.228,426.645l-0.032-0.032C430.478,481.608,431.447,481.614,431.663,481.615
					c-0.215,0.001-1.185,0.007-5.343,0.032l-0.032,0l0-0.033c-0.128-24.356-0.228-206.19-0.228-426.645v-0.261h0.26h0.021
					c1.823,0,3.644,0,5.323,0h0.261l0,0.26C431.779,291.08,431.664,478.763,431.663,481.615z"/>
			</g>
		</g>
		<g>
			<rect x="18.612" y="424.341" style="fill:#E0E0E0;" width="455.989" height="5.491"/>
			<g>
				<path style="fill:#263238;" d="M474.6,429.833c-0.001-0.207-0.007-1.168-0.031-5.491l0.031,0.031
					c-25.021,0.129-219.793,0.229-455.967,0.229h-0.022l0.26-0.26c0,1.882,0,3.76,0,5.491l-0.26-0.26
					C271.013,429.717,471.745,429.831,474.6,429.833c-2.853,0.002-203.587,0.116-455.989,0.26l-0.26,0v-0.261
					c0-1.732,0-3.609,0-5.491v-0.26h0.26h0.022c236.146,0.119,430.815,0.217,455.967,0.229h0.031l0,0.031
					C474.607,428.665,474.602,429.625,474.6,429.833z"/>
			</g>
		</g>
		<g>
			<g>
				<rect x="17.944" y="170.415" style="fill:#E0E0E0;" width="452.375" height="5.491"/>
				<g>
					<path style="fill:#263238;" d="M470.318,175.907c-0.001-0.209-0.007-1.177-0.031-5.491l0.031,0.031
						c-25.023,0.129-218.175,0.229-452.353,0.229h-0.022l0.26-0.26c0,1.882,0,3.759,0,5.491l-0.26-0.26
						C268.348,175.791,467.464,175.905,470.318,175.907c-2.853,0.002-201.97,0.116-452.375,0.26l-0.26,0v-0.261
						c0-1.732,0-3.609,0-5.491v-0.26h0.26h0.022c234.178,0,427.329,0.1,452.353,0.229l0.032,0l0,0.031
						C470.325,174.73,470.32,175.698,470.318,175.907z"/>
				</g>
			</g>
			<rect x="68.676" y="168.505" style="fill:#FF725E;" width="11.26" height="9.311"/>
			<rect x="245.975" y="168.505" style="fill:#FF725E;" width="11.26" height="9.311"/>
			<rect x="422.556" y="168.505" style="fill:#FF725E;" width="11.26" height="9.311"/>
		</g>
		<rect x="64.943" y="351.762" style="fill:#E0E0E0;" width="18.553" height="4.898"/>
		<rect x="64.324" y="121.644" style="fill:#E0E0E0;" width="18.553" height="4.898"/>
		<rect x="242.576" y="351.088" style="fill:#E0E0E0;" width="18.553" height="4.898"/>
		<rect x="419.176" y="351.088" style="fill:#E0E0E0;" width="18.553" height="4.898"/>
		<rect x="242.576" y="121.644" style="fill:#E0E0E0;" width="18.553" height="4.898"/>
		<rect x="419.176" y="121.644" style="fill:#E0E0E0;" width="18.553" height="4.898"/>
	</g>
</g>
</svg>
